<?xml version="1.0" encoding="UTF-8" standalone="no"?>
<!-- Created with Inkscape (http://www.inkscape.org/) -->

<svg
   xmlns:dc="http://purl.org/dc/elements/1.1/"
   xmlns:cc="http://creativecommons.org/ns#"
   xmlns:rdf="http://www.w3.org/1999/02/22-rdf-syntax-ns#"
   xmlns:svg="http://www.w3.org/2000/svg"
   xmlns="http://www.w3.org/2000/svg"
   xmlns:sodipodi="http://sodipodi.sourceforge.net/DTD/sodipodi-0.dtd"
   xmlns:inkscape="http://www.inkscape.org/namespaces/inkscape"
   id="svg3449"
   version="1.1"
   inkscape:version="0.91 r13725"
   xml:space="preserve"
   width="440.58032"
   height="136.18658"
   viewBox="0 0 440.58032 136.18658"
   sodipodi:docname="icyseq.svg"><metadata
     id="metadata3455"><rdf:RDF><cc:Work
         rdf:about=""><dc:format>image/svg+xml</dc:format><dc:type
           rdf:resource="http://purl.org/dc/dcmitype/StillImage" /><dc:title></dc:title></cc:Work></rdf:RDF></metadata><defs
     id="defs3453" /><sodipodi:namedview
     pagecolor="#ffffff"
     bordercolor="#666666"
     borderopacity="1"
     objecttolerance="10"
     gridtolerance="10"
     guidetolerance="10"
     inkscape:pageopacity="0"
     inkscape:pageshadow="2"
     inkscape:window-width="958"
     inkscape:window-height="1059"
     id="namedview3451"
     showgrid="false"
     inkscape:zoom="1.139425"
     inkscape:cx="348.46427"
     inkscape:cy="89.65648"
     inkscape:window-x="2880"
     inkscape:window-y="120"
     inkscape:window-maximized="0"
     inkscape:current-layer="g3457"
     fit-margin-top="0"
     fit-margin-left="0"
     fit-margin-right="0"
     fit-margin-bottom="0" /><g
     id="g3457"
     inkscape:groupmode="layer"
     inkscape:label="icyseq"
     transform="matrix(1.25,0,0,-1.25,0.00999999,93.059997)"><g
       id="g3459"
       transform="matrix(1.4635457,0,0,1.4635457,0.00370837,-34.510053)"><path
         d="m 63.48,74.026 6.016,0 0,-23.328 -6.016,0 0,23.328 z"
         style="fill:#ffff00;fill-opacity:1;fill-rule:nonzero;stroke:none"
         id="path3461"
         inkscape:connector-curvature="0" /><path
         d="m 89.309,67.651 0,-4.563 c -0.762,0.52 -1.528,0.907 -2.297,1.157 -0.762,0.25 -1.555,0.375 -2.375,0.375 -1.563,0 -2.782,-0.461 -3.657,-1.375 -0.867,-0.907 -1.296,-2.18 -1.296,-3.813 0,-1.637 0.429,-2.914 1.296,-3.828 0.875,-0.906 2.094,-1.359 3.657,-1.359 0.875,0 1.703,0.129 2.484,0.39 0.789,0.258 1.52,0.645 2.188,1.157 l 0,-4.579 c -0.875,-0.324 -1.766,-0.562 -2.672,-0.718 -0.899,-0.164 -1.797,-0.25 -2.703,-0.25 -3.157,0 -5.625,0.804 -7.407,2.422 -1.781,1.625 -2.672,3.878 -2.672,6.765 0,2.883 0.891,5.133 2.672,6.75 1.782,1.625 4.25,2.438 7.407,2.438 0.914,0 1.816,-0.086 2.703,-0.25 0.894,-0.157 1.785,-0.399 2.672,-0.719 z"
         style="fill:#ffff00;fill-opacity:1;fill-rule:nonzero;stroke:none"
         id="path3463"
         inkscape:connector-curvature="0" /><path
         d="m 91.871,68.198 5.594,0 4.703,-11.875 4,11.875 5.594,0 -7.36,-19.156 c -0.742,-1.946 -1.605,-3.305 -2.593,-4.079 -0.981,-0.781 -2.278,-1.171 -3.891,-1.171 l -3.234,0 0,3.671 1.75,0 c 0.945,0 1.632,0.153 2.062,0.454 0.438,0.304 0.774,0.843 1.016,1.625 l 0.156,0.484 -7.797,18.172 z"
         style="fill:#ffff00;fill-opacity:1;fill-rule:nonzero;stroke:none"
         id="path3465"
         inkscape:connector-curvature="0" /><path
         d="m 131.527,73.292 0,-4.938 c -1.281,0.57 -2.531,1.004 -3.75,1.297 -1.218,0.289 -2.371,0.437 -3.453,0.437 -1.437,0 -2.5,-0.199 -3.187,-0.593 -0.688,-0.399 -1.032,-1.012 -1.032,-1.844 0,-0.625 0.227,-1.117 0.688,-1.469 0.469,-0.344 1.312,-0.64 2.531,-0.89 l 2.563,-0.516 c 2.593,-0.523 4.437,-1.313 5.531,-2.375 1.094,-1.063 1.641,-2.574 1.641,-4.531 0,-2.575 -0.766,-4.492 -2.297,-5.75 -1.524,-1.25 -3.852,-1.875 -6.985,-1.875 -1.48,0 -2.965,0.14 -4.453,0.422 -1.492,0.281 -2.98,0.695 -4.469,1.25 l 0,5.078 c 1.489,-0.793 2.926,-1.391 4.313,-1.797 1.394,-0.399 2.738,-0.594 4.031,-0.594 1.313,0 2.317,0.219 3.016,0.656 0.695,0.438 1.047,1.063 1.047,1.875 0,0.727 -0.242,1.289 -0.719,1.688 -0.469,0.394 -1.414,0.75 -2.828,1.062 l -2.328,0.516 c -2.336,0.5 -4.043,1.297 -5.125,2.391 -1.074,1.093 -1.61,2.566 -1.61,4.421 0,2.321 0.75,4.11 2.25,5.36 1.5,1.25 3.657,1.875 6.469,1.875 1.281,0 2.598,-0.102 3.953,-0.297 1.352,-0.188 2.754,-0.477 4.203,-0.859 z"
         style="fill:#ffff00;fill-opacity:1;fill-rule:nonzero;stroke:none"
         id="path3467"
         inkscape:connector-curvature="0" /><path
         d="m 155.574,59.495 0,-1.594 -13.078,0 c 0.133,-1.313 0.609,-2.297 1.422,-2.953 0.812,-0.656 1.945,-0.985 3.406,-0.985 1.176,0 2.379,0.172 3.61,0.516 1.238,0.352 2.507,0.883 3.812,1.594 l 0,-4.313 c -1.324,-0.5 -2.648,-0.875 -3.969,-1.125 -1.324,-0.257 -2.648,-0.39 -3.968,-0.39 -3.168,0 -5.633,0.8 -7.391,2.406 -1.75,1.613 -2.625,3.875 -2.625,6.781 0,2.852 0.859,5.098 2.578,6.735 1.727,1.632 4.102,2.453 7.125,2.453 2.75,0 4.945,-0.828 6.594,-2.485 1.656,-1.656 2.484,-3.871 2.484,-6.64 z m -5.75,1.859 c 0,1.063 -0.312,1.914 -0.937,2.563 -0.617,0.656 -1.422,0.984 -2.422,0.984 -1.086,0 -1.965,-0.309 -2.641,-0.922 -0.679,-0.605 -1.101,-1.48 -1.265,-2.625 l 7.265,0 z"
         style="fill:#ffff00;fill-opacity:1;fill-rule:nonzero;stroke:none"
         id="path3469"
         inkscape:connector-curvature="0" /><path
         d="m 168.012,64.557 c -1.188,0 -2.102,-0.437 -2.735,-1.312 -0.625,-0.875 -0.937,-2.149 -0.937,-3.813 0,-1.668 0.312,-2.937 0.937,-3.812 0.633,-0.875 1.547,-1.313 2.735,-1.313 1.195,0 2.109,0.438 2.734,1.313 0.633,0.875 0.953,2.144 0.953,3.812 0,1.664 -0.32,2.938 -0.953,3.813 -0.625,0.875 -1.539,1.312 -2.734,1.312 z m 3.687,-11.328 c -0.773,-1.031 -1.621,-1.789 -2.547,-2.266 -0.929,-0.476 -2,-0.718 -3.218,-0.718 -2.157,0 -3.93,0.851 -5.313,2.562 -1.387,1.719 -2.078,3.926 -2.078,6.625 0,2.696 0.691,4.895 2.078,6.594 1.383,1.707 3.156,2.562 5.313,2.562 1.218,0 2.289,-0.242 3.218,-0.718 0.926,-0.481 1.774,-1.235 2.547,-2.266 l 0,2.594 5.625,0 0,-24.156 -5.625,0 0,9.187 z"
         style="fill:#ffff00;fill-opacity:1;fill-rule:nonzero;stroke:none"
         id="path3471"
         inkscape:connector-curvature="0" /><path
         d="m 52.906,29.491 0,-7.938 1.672,0 c 1.406,0 2.438,0.317 3.094,0.953 0.656,0.633 0.984,1.641 0.984,3.016 0,1.375 -0.328,2.379 -0.984,3.016 -0.656,0.632 -1.688,0.953 -3.094,0.953 l -1.672,0 z m -1.375,1.125 2.844,0 c 1.969,0 3.414,-0.414 4.344,-1.235 0.926,-0.824 1.39,-2.109 1.39,-3.859 0,-1.762 -0.464,-3.055 -1.39,-3.875 -0.93,-0.824 -2.375,-1.234 -4.344,-1.234 l -2.844,0 0,10.203 z"
         style="fill:#b3b3b3;fill-opacity:1;fill-rule:nonzero;stroke:none"
         id="path3473"
         inkscape:connector-curvature="0" /><path
         d="m 66.68,26.897 c -0.137,0.082 -0.289,0.141 -0.453,0.172 -0.168,0.039 -0.352,0.062 -0.547,0.062 -0.719,0 -1.274,-0.234 -1.657,-0.703 -0.375,-0.461 -0.562,-1.121 -0.562,-1.984 l 0,-4.031 -1.266,0 0,7.656 1.266,0 0,-1.188 c 0.269,0.469 0.613,0.813 1.031,1.032 0.426,0.226 0.942,0.343 1.547,0.343 0.094,0 0.191,-0.007 0.297,-0.015 0.102,-0.012 0.219,-0.031 0.344,-0.063 l 0,-1.281 z"
         style="fill:#b3b3b3;fill-opacity:1;fill-rule:nonzero;stroke:none"
         id="path3475"
         inkscape:connector-curvature="0" /><path
         d="m 70.68,27.194 c -0.668,0 -1.2,-0.266 -1.594,-0.797 -0.398,-0.523 -0.594,-1.242 -0.594,-2.156 0,-0.918 0.192,-1.641 0.578,-2.172 0.395,-0.524 0.93,-0.781 1.61,-0.781 0.675,0 1.207,0.257 1.593,0.781 0.395,0.531 0.594,1.254 0.594,2.172 0,0.906 -0.199,1.625 -0.594,2.156 -0.386,0.531 -0.918,0.797 -1.593,0.797 z m 0,1.062 c 1.093,0 1.953,-0.359 2.578,-1.078 0.625,-0.711 0.937,-1.687 0.937,-2.937 0,-1.262 -0.312,-2.25 -0.937,-2.969 -0.625,-0.711 -1.485,-1.062 -2.578,-1.062 -1.094,0 -1.953,0.351 -2.578,1.062 -0.625,0.719 -0.938,1.707 -0.938,2.969 0,1.25 0.313,2.226 0.938,2.937 0.625,0.719 1.484,1.078 2.578,1.078 z"
         style="fill:#b3b3b3;fill-opacity:1;fill-rule:nonzero;stroke:none"
         id="path3477"
         inkscape:connector-curvature="0" /><path
         d="m 77.488,21.569 0,-4.063 -1.265,0 0,10.563 1.265,0 0,-1.156 c 0.27,0.445 0.602,0.781 1,1 0.407,0.226 0.891,0.343 1.453,0.343 0.926,0 1.68,-0.371 2.266,-1.109 0.582,-0.742 0.875,-1.711 0.875,-2.906 0,-1.211 -0.293,-2.184 -0.875,-2.922 -0.586,-0.742 -1.34,-1.109 -2.266,-1.109 -0.562,0 -1.046,0.109 -1.453,0.328 -0.398,0.226 -0.73,0.57 -1,1.031 z m 4.282,2.672 c 0,0.914 -0.196,1.633 -0.579,2.156 -0.375,0.531 -0.898,0.797 -1.562,0.797 -0.668,0 -1.195,-0.266 -1.578,-0.797 -0.375,-0.523 -0.563,-1.242 -0.563,-2.156 0,-0.93 0.188,-1.656 0.563,-2.188 0.383,-0.523 0.91,-0.781 1.578,-0.781 0.664,0 1.187,0.258 1.562,0.781 0.383,0.532 0.579,1.258 0.579,2.188 z"
         style="fill:#b3b3b3;fill-opacity:1;fill-rule:nonzero;stroke:none"
         id="path3479"
         inkscape:connector-curvature="0" /><path
         d="m 93.504,31.053 0,-1.047 -1.203,0 c -0.461,0 -0.778,-0.093 -0.953,-0.281 -0.168,-0.18 -0.25,-0.508 -0.25,-0.984 l 0,-0.672 2.062,0 0,-0.984 -2.062,0 0,-6.672 -1.266,0 0,6.672 -1.203,0 0,0.984 1.203,0 0,0.531 c 0,0.852 0.195,1.473 0.594,1.86 0.394,0.394 1.019,0.593 1.875,0.593 l 1.203,0 z"
         style="fill:#b3b3b3;fill-opacity:1;fill-rule:nonzero;stroke:none"
         id="path3481"
         inkscape:connector-curvature="0" /><path
         d="m 98.02,24.256 c -1.012,0 -1.715,-0.117 -2.11,-0.343 -0.398,-0.231 -0.594,-0.625 -0.594,-1.188 0,-0.449 0.145,-0.805 0.438,-1.062 0.301,-0.262 0.703,-0.391 1.203,-0.391 0.695,0 1.254,0.242 1.672,0.734 0.426,0.5 0.641,1.157 0.641,1.969 l 0,0.281 -1.25,0 z m 2.515,0.532 0,-4.375 -1.265,0 0,1.156 c -0.282,-0.461 -0.641,-0.805 -1.079,-1.031 -0.429,-0.219 -0.949,-0.328 -1.562,-0.328 -0.781,0 -1.406,0.218 -1.875,0.656 -0.461,0.445 -0.688,1.039 -0.688,1.781 0,0.852 0.286,1.5 0.86,1.938 0.582,0.437 1.441,0.656 2.578,0.656 l 1.766,0 0,0.125 c 0,0.582 -0.196,1.031 -0.579,1.344 -0.375,0.32 -0.906,0.484 -1.593,0.484 -0.438,0 -0.868,-0.059 -1.282,-0.172 -0.418,-0.105 -0.812,-0.262 -1.187,-0.469 l 0,1.172 c 0.457,0.176 0.898,0.305 1.328,0.391 0.438,0.094 0.859,0.14 1.266,0.14 1.113,0 1.941,-0.289 2.484,-0.859 0.551,-0.574 0.828,-1.445 0.828,-2.609 z"
         style="fill:#b3b3b3;fill-opacity:1;fill-rule:nonzero;stroke:none"
         id="path3483"
         inkscape:connector-curvature="0" /><path
         d="m 108.012,27.85 0,-1.203 c -0.356,0.188 -0.727,0.32 -1.11,0.406 -0.386,0.094 -0.781,0.141 -1.187,0.141 -0.625,0 -1.094,-0.094 -1.406,-0.281 -0.313,-0.188 -0.469,-0.477 -0.469,-0.86 0,-0.293 0.109,-0.523 0.328,-0.687 0.227,-0.168 0.68,-0.324 1.359,-0.469 l 0.422,-0.109 c 0.895,-0.188 1.531,-0.461 1.906,-0.813 0.375,-0.344 0.563,-0.828 0.563,-1.453 0,-0.711 -0.281,-1.273 -0.844,-1.687 -0.562,-0.418 -1.336,-0.625 -2.312,-0.625 -0.418,0 -0.852,0.043 -1.297,0.125 -0.438,0.082 -0.903,0.203 -1.391,0.359 l 0,1.297 c 0.457,-0.242 0.91,-0.422 1.36,-0.547 0.457,-0.117 0.906,-0.172 1.343,-0.172 0.594,0 1.047,0.098 1.36,0.297 0.32,0.207 0.484,0.492 0.484,0.859 0,0.344 -0.117,0.602 -0.344,0.782 -0.23,0.187 -0.734,0.363 -1.515,0.531 l -0.438,0.109 c -0.773,0.156 -1.336,0.406 -1.687,0.75 -0.344,0.344 -0.516,0.805 -0.516,1.391 0,0.726 0.254,1.285 0.766,1.672 0.508,0.394 1.234,0.593 2.172,0.593 0.468,0 0.906,-0.039 1.312,-0.109 0.414,-0.062 0.797,-0.164 1.141,-0.297 z"
         style="fill:#b3b3b3;fill-opacity:1;fill-rule:nonzero;stroke:none"
         id="path3485"
         inkscape:connector-curvature="0" /><path
         d="m 111.672,30.241 0,-2.172 2.594,0 0,-0.984 -2.594,0 0,-4.157 c 0,-0.617 0.082,-1.015 0.25,-1.203 0.176,-0.18 0.523,-0.265 1.047,-0.265 l 1.297,0 0,-1.047 -1.297,0 c -0.969,0 -1.641,0.179 -2.016,0.547 -0.367,0.363 -0.547,1.019 -0.547,1.968 l 0,4.157 -0.922,0 0,0.984 0.922,0 0,2.172 1.266,0 z"
         style="fill:#b3b3b3;fill-opacity:1;fill-rule:nonzero;stroke:none"
         id="path3487"
         inkscape:connector-curvature="0" /><path
         d="m 119.402,24.256 c -1.011,0 -1.714,-0.117 -2.109,-0.343 -0.398,-0.231 -0.594,-0.625 -0.594,-1.188 0,-0.449 0.145,-0.805 0.438,-1.062 0.301,-0.262 0.703,-0.391 1.203,-0.391 0.695,0 1.254,0.242 1.672,0.734 0.426,0.5 0.64,1.157 0.64,1.969 l 0,0.281 -1.25,0 z m 2.516,0.532 0,-4.375 -1.266,0 0,1.156 c -0.281,-0.461 -0.64,-0.805 -1.078,-1.031 -0.429,-0.219 -0.949,-0.328 -1.562,-0.328 -0.782,0 -1.407,0.218 -1.875,0.656 -0.461,0.445 -0.688,1.039 -0.688,1.781 0,0.852 0.285,1.5 0.86,1.938 0.582,0.437 1.441,0.656 2.578,0.656 l 1.765,0 0,0.125 c 0,0.582 -0.195,1.031 -0.578,1.344 -0.375,0.32 -0.906,0.484 -1.594,0.484 -0.437,0 -0.867,-0.059 -1.281,-0.172 -0.418,-0.105 -0.812,-0.262 -1.187,-0.469 l 0,1.172 c 0.457,0.176 0.898,0.305 1.328,0.391 0.437,0.094 0.859,0.14 1.265,0.14 1.114,0 1.942,-0.289 2.485,-0.859 0.551,-0.574 0.828,-1.445 0.828,-2.609 z"
         style="fill:#b3b3b3;fill-opacity:1;fill-rule:nonzero;stroke:none"
         id="path3489"
         inkscape:connector-curvature="0" /><path
         d="m 135.148,28.069 0,-7.656 -1.265,0 0,6.672 -3.438,0 0,-6.672 -1.265,0 0,6.672 -1.203,0 0,0.984 1.203,0 0,0.531 c 0,0.832 0.191,1.445 0.578,1.844 0.394,0.406 1.004,0.609 1.828,0.609 l 1.266,0 0,-1.047 -1.204,0 c -0.46,0 -0.777,-0.093 -0.953,-0.281 -0.168,-0.18 -0.25,-0.508 -0.25,-0.984 l 0,-0.672 4.703,0 z m -1.265,2.969 1.265,0 0,-1.594 -1.265,0 0,1.594 z"
         style="fill:#b3b3b3;fill-opacity:1;fill-rule:nonzero;stroke:none"
         id="path3491"
         inkscape:connector-curvature="0" /><path
         d="m 137.793,31.053 1.266,0 0,-10.641 -1.266,0 0,10.641 z"
         style="fill:#b3b3b3;fill-opacity:1;fill-rule:nonzero;stroke:none"
         id="path3493"
         inkscape:connector-curvature="0" /><path
         d="m 148.238,24.553 0,-0.609 -5.797,0 c 0.063,-0.867 0.321,-1.527 0.782,-1.984 0.468,-0.45 1.117,-0.672 1.953,-0.672 0.488,0 0.957,0.054 1.406,0.172 0.457,0.113 0.91,0.289 1.359,0.531 l 0,-1.188 c -0.461,-0.187 -0.929,-0.336 -1.406,-0.437 -0.469,-0.102 -0.945,-0.156 -1.422,-0.156 -1.23,0 -2.203,0.351 -2.922,1.062 -0.711,0.719 -1.062,1.68 -1.062,2.891 0,1.257 0.336,2.254 1.016,2.984 0.675,0.738 1.593,1.109 2.75,1.109 1.031,0 1.843,-0.336 2.437,-1 0.602,-0.656 0.906,-1.558 0.906,-2.703 z m -1.265,0.375 c -0.012,0.688 -0.203,1.235 -0.578,1.641 -0.375,0.414 -0.872,0.625 -1.485,0.625 -0.711,0 -1.277,-0.203 -1.703,-0.609 -0.418,-0.399 -0.656,-0.954 -0.719,-1.672 l 4.485,0.015 z"
         style="fill:#b3b3b3;fill-opacity:1;fill-rule:nonzero;stroke:none"
         id="path3495"
         inkscape:connector-curvature="0" /><path
         d="m 154.809,30.616 1.375,0 0,-4.188 5.015,0 0,4.188 1.391,0 0,-10.203 -1.391,0 0,4.859 -5.015,0 0,-4.859 -1.375,0 0,10.203 z"
         style="fill:#00ffff;fill-opacity:1;fill-rule:nonzero;stroke:none"
         id="path3497"
         inkscape:connector-curvature="0" /><path
         d="m 165.336,30.616 6.453,0 0,-1.156 -5.078,0 0,-3.032 4.859,0 0,-1.156 -4.859,0 0,-3.703 5.203,0 0,-1.156 -6.578,0 0,10.203 z"
         style="fill:#00ffff;fill-opacity:1;fill-rule:nonzero;stroke:none"
         id="path3499"
         inkscape:connector-curvature="0" /><path
         d="m 179.039,25.194 c 0.289,-0.094 0.578,-0.309 0.859,-0.641 0.282,-0.324 0.563,-0.773 0.844,-1.343 l 1.406,-2.797 -1.484,0 -1.312,2.625 c -0.336,0.675 -0.664,1.125 -0.985,1.343 -0.312,0.227 -0.742,0.344 -1.281,0.344 l -1.516,0 0,-4.312 -1.375,0 0,10.203 3.11,0 c 1.164,0 2.035,-0.246 2.609,-0.735 0.582,-0.48 0.875,-1.214 0.875,-2.203 0,-0.648 -0.152,-1.183 -0.453,-1.609 -0.305,-0.418 -0.734,-0.711 -1.297,-0.875 z m -3.469,4.297 0,-3.625 1.735,0 c 0.664,0 1.172,0.148 1.515,0.453 0.344,0.312 0.516,0.766 0.516,1.359 0,0.594 -0.172,1.039 -0.516,1.344 -0.343,0.313 -0.851,0.469 -1.515,0.469 l -1.735,0 z"
         style="fill:#00ffff;fill-opacity:1;fill-rule:nonzero;stroke:none"
         id="path3501"
         inkscape:connector-curvature="0" /><path
         d="m 183.93,30.616 6.453,0 0,-1.156 -5.078,0 0,-3.032 4.859,0 0,-1.156 -4.859,0 0,-3.703 5.203,0 0,-1.156 -6.578,0 0,10.203 z"
         style="fill:#00ffff;fill-opacity:1;fill-rule:nonzero;stroke:none"
         id="path3503"
         inkscape:connector-curvature="0" /><path
         d="M 3.508,9.694 C 2.84,9.694 2.309,9.428 1.914,8.897 1.516,8.374 1.32,7.655 1.32,6.741 1.32,5.823 1.512,5.1 1.898,4.569 2.293,4.045 2.828,3.788 3.508,3.788 4.184,3.788 4.715,4.045 5.102,4.569 5.496,5.1 5.695,5.823 5.695,6.741 5.695,7.647 5.496,8.366 5.102,8.897 4.715,9.428 4.184,9.694 3.508,9.694 Z m 0,1.062 c 1.094,0 1.953,-0.359 2.578,-1.078 C 6.711,8.967 7.023,7.991 7.023,6.741 7.023,5.479 6.711,4.491 6.086,3.772 5.461,3.061 4.602,2.71 3.508,2.71 2.414,2.71 1.555,3.061 0.93,3.772 0.305,4.491 -0.008,5.479 -0.008,6.741 c 0,1.25 0.313,2.226 0.938,2.937 0.625,0.719 1.484,1.078 2.578,1.078 z"
         style="fill:#b3b3b3;fill-opacity:1;fill-rule:nonzero;stroke:none"
         id="path3505"
         inkscape:connector-curvature="0" /><path
         d="M 13.535,9.397 C 13.398,9.479 13.246,9.538 13.082,9.569 12.914,9.608 12.73,9.631 12.535,9.631 11.816,9.631 11.262,9.397 10.879,8.928 10.504,8.467 10.316,7.807 10.316,6.944 l 0,-4.031 -1.265,0 0,7.656 1.265,0 0,-1.188 c 0.27,0.469 0.614,0.813 1.032,1.032 0.425,0.226 0.941,0.343 1.547,0.343 0.093,0 0.191,-0.007 0.296,-0.015 0.102,-0.012 0.219,-0.031 0.344,-0.063 l 0,-1.281 z"
         style="fill:#b3b3b3;fill-opacity:1;fill-rule:nonzero;stroke:none"
         id="path3507"
         inkscape:connector-curvature="0" /><path
         d="m 20.543,4.069 0,-4.063 -1.266,0 0,10.563 1.266,0 0,-1.156 c 0.269,0.445 0.602,0.781 1,1 0.406,0.226 0.891,0.343 1.453,0.343 0.926,0 1.68,-0.371 2.266,-1.109 0.582,-0.742 0.875,-1.711 0.875,-2.906 0,-1.211 -0.293,-2.184 -0.875,-2.922 -0.586,-0.742 -1.34,-1.109 -2.266,-1.109 -0.562,0 -1.047,0.109 -1.453,0.328 -0.398,0.226 -0.731,0.57 -1,1.031 z m 4.281,2.672 c 0,0.914 -0.195,1.633 -0.578,2.156 -0.375,0.531 -0.898,0.797 -1.562,0.797 -0.668,0 -1.196,-0.266 -1.579,-0.797 -0.375,-0.523 -0.562,-1.242 -0.562,-2.156 0,-0.93 0.187,-1.656 0.562,-2.188 0.383,-0.523 0.911,-0.781 1.579,-0.781 0.664,0 1.187,0.258 1.562,0.781 0.383,0.532 0.578,1.258 0.578,2.188 z"
         style="fill:#b3b3b3;fill-opacity:1;fill-rule:nonzero;stroke:none"
         id="path3509"
         inkscape:connector-curvature="0" /><path
         d="M 32.648,9.397 C 32.512,9.479 32.359,9.538 32.195,9.569 32.027,9.608 31.844,9.631 31.648,9.631 30.93,9.631 30.375,9.397 29.992,8.928 29.617,8.467 29.43,7.807 29.43,6.944 l 0,-4.031 -1.266,0 0,7.656 1.266,0 0,-1.188 c 0.269,0.469 0.613,0.813 1.031,1.032 0.426,0.226 0.941,0.343 1.547,0.343 0.094,0 0.191,-0.007 0.297,-0.015 0.101,-0.012 0.218,-0.031 0.343,-0.063 l 0,-1.281 z"
         style="fill:#b3b3b3;fill-opacity:1;fill-rule:nonzero;stroke:none"
         id="path3511"
         inkscape:connector-curvature="0" /><path
         d="m 40.242,7.053 0,-0.609 -5.797,0 c 0.063,-0.867 0.321,-1.527 0.782,-1.984 0.468,-0.45 1.117,-0.672 1.953,-0.672 0.488,0 0.957,0.054 1.406,0.172 0.457,0.113 0.91,0.289 1.359,0.531 l 0,-1.188 C 39.484,3.116 39.016,2.967 38.539,2.866 38.07,2.764 37.594,2.71 37.117,2.71 c -1.23,0 -2.203,0.351 -2.922,1.062 -0.711,0.719 -1.062,1.68 -1.062,2.891 0,1.257 0.336,2.254 1.015,2.984 0.676,0.738 1.594,1.109 2.75,1.109 1.032,0 1.844,-0.336 2.438,-1 C 39.938,9.1 40.242,8.198 40.242,7.053 Z M 38.977,7.428 C 38.965,8.116 38.773,8.663 38.398,9.069 38.023,9.483 37.527,9.694 36.914,9.694 36.203,9.694 35.637,9.491 35.211,9.085 34.793,8.686 34.555,8.131 34.492,7.413 l 4.485,0.015 z"
         style="fill:#b3b3b3;fill-opacity:1;fill-rule:nonzero;stroke:none"
         id="path3513"
         inkscape:connector-curvature="0" /><path
         d="m 47.184,10.35 0,-1.203 C 46.828,9.335 46.457,9.467 46.074,9.553 45.688,9.647 45.293,9.694 44.887,9.694 44.262,9.694 43.793,9.6 43.48,9.413 43.168,9.225 43.012,8.936 43.012,8.553 43.012,8.26 43.121,8.03 43.34,7.866 43.566,7.698 44.02,7.542 44.699,7.397 L 45.121,7.288 C 46.016,7.1 46.652,6.827 47.027,6.475 47.402,6.131 47.59,5.647 47.59,5.022 47.59,4.311 47.309,3.749 46.746,3.335 46.184,2.917 45.41,2.71 44.434,2.71 c -0.418,0 -0.852,0.043 -1.297,0.125 -0.438,0.082 -0.903,0.203 -1.391,0.359 l 0,1.297 c 0.457,-0.242 0.91,-0.422 1.359,-0.547 0.457,-0.117 0.907,-0.172 1.344,-0.172 0.594,0 1.047,0.098 1.36,0.297 0.32,0.207 0.484,0.492 0.484,0.859 0,0.344 -0.117,0.602 -0.344,0.782 -0.23,0.187 -0.734,0.363 -1.515,0.531 L 43.996,6.35 c -0.773,0.156 -1.336,0.406 -1.687,0.75 -0.344,0.344 -0.516,0.805 -0.516,1.391 0,0.726 0.254,1.285 0.766,1.672 0.507,0.394 1.234,0.593 2.171,0.593 0.469,0 0.907,-0.039 1.313,-0.109 0.414,-0.062 0.797,-0.164 1.141,-0.297 z"
         style="fill:#b3b3b3;fill-opacity:1;fill-rule:nonzero;stroke:none"
         id="path3515"
         inkscape:connector-curvature="0" /><path
         d="m 54.484,10.35 0,-1.203 C 54.129,9.335 53.758,9.467 53.375,9.553 52.988,9.647 52.594,9.694 52.188,9.694 51.562,9.694 51.094,9.6 50.781,9.413 50.469,9.225 50.312,8.936 50.312,8.553 50.312,8.26 50.422,8.03 50.641,7.866 50.867,7.698 51.32,7.542 52,7.397 L 52.422,7.288 C 53.316,7.1 53.953,6.827 54.328,6.475 54.703,6.131 54.891,5.647 54.891,5.022 54.891,4.311 54.609,3.749 54.047,3.335 53.484,2.917 52.711,2.71 51.734,2.71 51.316,2.71 50.883,2.753 50.438,2.835 50,2.917 49.535,3.038 49.047,3.194 l 0,1.297 c 0.457,-0.242 0.91,-0.422 1.359,-0.547 0.457,-0.117 0.906,-0.172 1.344,-0.172 0.594,0 1.047,0.098 1.359,0.297 0.321,0.207 0.485,0.492 0.485,0.859 0,0.344 -0.117,0.602 -0.344,0.782 -0.23,0.187 -0.734,0.363 -1.516,0.531 L 51.297,6.35 c -0.774,0.156 -1.336,0.406 -1.688,0.75 -0.343,0.344 -0.515,0.805 -0.515,1.391 0,0.726 0.254,1.285 0.765,1.672 0.508,0.394 1.235,0.593 2.172,0.593 0.469,0 0.907,-0.039 1.313,-0.109 0.414,-0.062 0.797,-0.164 1.14,-0.297 z"
         style="fill:#b3b3b3;fill-opacity:1;fill-rule:nonzero;stroke:none"
         id="path3517"
         inkscape:connector-curvature="0" /><path
         d="m 62.555,13.116 0,-3.797 -1.172,0 0,3.797 1.172,0 z m 2.578,0 0,-3.797 -1.156,0 0,3.797 1.156,0 z"
         style="fill:#b3b3b3;fill-opacity:1;fill-rule:nonzero;stroke:none"
         id="path3519"
         inkscape:connector-curvature="0" /><path
         d="m 67.867,13.116 1.375,0 0,-9.047 4.969,0 0,-1.156 -6.344,0 0,10.203 z"
         style="fill:#00ffff;fill-opacity:1;fill-rule:nonzero;stroke:none"
         id="path3521"
         inkscape:connector-curvature="0" /><path
         d="m 76.801,13.116 0,-3.797 -1.172,0 0,3.797 1.172,0 z m 2.578,0 0,-3.797 -1.156,0 0,3.797 1.156,0 z"
         style="fill:#b3b3b3;fill-opacity:1;fill-rule:nonzero;stroke:none"
         id="path3523"
         inkscape:connector-curvature="0" /><path
         d="m 87.758,12.741 0,-2.172 2.594,0 0,-0.984 -2.594,0 0,-4.157 c 0,-0.617 0.082,-1.015 0.25,-1.203 0.176,-0.18 0.523,-0.265 1.047,-0.265 l 1.297,0 0,-1.047 -1.297,0 c -0.969,0 -1.641,0.179 -2.016,0.547 -0.367,0.363 -0.547,1.019 -0.547,1.968 l 0,4.157 -0.922,0 0,0.984 0.922,0 0,2.172 1.266,0 z"
         style="fill:#b3b3b3;fill-opacity:1;fill-rule:nonzero;stroke:none"
         id="path3525"
         inkscape:connector-curvature="0" /><path
         d="m 94.973,9.694 c -0.668,0 -1.2,-0.266 -1.594,-0.797 -0.399,-0.523 -0.594,-1.242 -0.594,-2.156 0,-0.918 0.192,-1.641 0.578,-2.172 0.395,-0.524 0.93,-0.781 1.61,-0.781 0.675,0 1.207,0.257 1.593,0.781 0.395,0.531 0.594,1.254 0.594,2.172 0,0.906 -0.199,1.625 -0.594,2.156 -0.386,0.531 -0.918,0.797 -1.593,0.797 z m 0,1.062 c 1.093,0 1.953,-0.359 2.578,-1.078 0.625,-0.711 0.937,-1.687 0.937,-2.937 0,-1.262 -0.312,-2.25 -0.937,-2.969 C 96.926,3.061 96.066,2.71 94.973,2.71 c -1.094,0 -1.953,0.351 -2.578,1.062 -0.625,0.719 -0.938,1.707 -0.938,2.969 0,1.25 0.313,2.226 0.938,2.937 0.625,0.719 1.484,1.078 2.578,1.078 z"
         style="fill:#b3b3b3;fill-opacity:1;fill-rule:nonzero;stroke:none"
         id="path3527"
         inkscape:connector-curvature="0" /><path
         d="m 107.988,9.694 c -0.668,0 -1.199,-0.266 -1.593,-0.797 -0.399,-0.523 -0.594,-1.242 -0.594,-2.156 0,-0.918 0.191,-1.641 0.578,-2.172 0.394,-0.524 0.93,-0.781 1.609,-0.781 0.676,0 1.207,0.257 1.594,0.781 0.395,0.531 0.594,1.254 0.594,2.172 0,0.906 -0.199,1.625 -0.594,2.156 -0.387,0.531 -0.918,0.797 -1.594,0.797 z m 0,1.062 c 1.094,0 1.953,-0.359 2.578,-1.078 0.625,-0.711 0.938,-1.687 0.938,-2.937 0,-1.262 -0.313,-2.25 -0.938,-2.969 -0.625,-0.711 -1.484,-1.062 -2.578,-1.062 -1.093,0 -1.953,0.351 -2.578,1.062 -0.625,0.719 -0.937,1.707 -0.937,2.969 0,1.25 0.312,2.226 0.937,2.937 0.625,0.719 1.485,1.078 2.578,1.078 z"
         style="fill:#b3b3b3;fill-opacity:1;fill-rule:nonzero;stroke:none"
         id="path3529"
         inkscape:connector-curvature="0" /><path
         d="m 114.797,4.069 0,-4.063 -1.266,0 0,10.563 1.266,0 0,-1.156 c 0.269,0.445 0.601,0.781 1,1 0.406,0.226 0.891,0.343 1.453,0.343 0.926,0 1.68,-0.371 2.266,-1.109 0.582,-0.742 0.875,-1.711 0.875,-2.906 0,-1.211 -0.293,-2.184 -0.875,-2.922 -0.586,-0.742 -1.34,-1.109 -2.266,-1.109 -0.562,0 -1.047,0.109 -1.453,0.328 -0.399,0.226 -0.731,0.57 -1,1.031 z m 4.281,2.672 c 0,0.914 -0.195,1.633 -0.578,2.156 -0.375,0.531 -0.898,0.797 -1.562,0.797 -0.668,0 -1.196,-0.266 -1.579,-0.797 -0.375,-0.523 -0.562,-1.242 -0.562,-2.156 0,-0.93 0.187,-1.656 0.562,-2.188 0.383,-0.523 0.911,-0.781 1.579,-0.781 0.664,0 1.187,0.258 1.562,0.781 0.383,0.532 0.578,1.258 0.578,2.188 z"
         style="fill:#b3b3b3;fill-opacity:1;fill-rule:nonzero;stroke:none"
         id="path3531"
         inkscape:connector-curvature="0" /><path
         d="m 129.027,7.053 0,-0.609 -5.797,0 c 0.063,-0.867 0.321,-1.527 0.782,-1.984 0.468,-0.45 1.117,-0.672 1.953,-0.672 0.488,0 0.957,0.054 1.406,0.172 0.457,0.113 0.91,0.289 1.359,0.531 l 0,-1.188 c -0.46,-0.187 -0.929,-0.336 -1.406,-0.437 -0.469,-0.102 -0.945,-0.156 -1.422,-0.156 -1.23,0 -2.203,0.351 -2.922,1.062 -0.71,0.719 -1.062,1.68 -1.062,2.891 0,1.257 0.336,2.254 1.016,2.984 0.675,0.738 1.593,1.109 2.75,1.109 1.031,0 1.843,-0.336 2.437,-1 0.602,-0.656 0.906,-1.558 0.906,-2.703 z m -1.265,0.375 c -0.012,0.688 -0.203,1.235 -0.578,1.641 -0.375,0.414 -0.872,0.625 -1.485,0.625 -0.711,0 -1.277,-0.203 -1.703,-0.609 -0.418,-0.399 -0.656,-0.954 -0.719,-1.672 l 4.485,0.015 z"
         style="fill:#b3b3b3;fill-opacity:1;fill-rule:nonzero;stroke:none"
         id="path3533"
         inkscape:connector-curvature="0" /><path
         d="m 137.453,7.538 0,-4.625 -1.265,0 0,4.578 c 0,0.726 -0.141,1.269 -0.422,1.625 -0.282,0.363 -0.704,0.547 -1.266,0.547 -0.68,0 -1.215,-0.219 -1.609,-0.657 -0.399,-0.429 -0.594,-1.015 -0.594,-1.765 l 0,-4.328 -1.266,0 0,7.656 1.266,0 0,-1.188 c 0.301,0.457 0.656,0.801 1.062,1.032 0.414,0.226 0.891,0.343 1.422,0.343 0.875,0 1.535,-0.277 1.985,-0.828 0.457,-0.543 0.687,-1.34 0.687,-2.39 z"
         style="fill:#b3b3b3;fill-opacity:1;fill-rule:nonzero;stroke:none"
         id="path3535"
         inkscape:connector-curvature="0" /><path
         d="m 147.906,6.756 c -1.011,0 -1.715,-0.117 -2.109,-0.343 -0.399,-0.231 -0.594,-0.625 -0.594,-1.188 0,-0.449 0.145,-0.805 0.438,-1.062 0.3,-0.262 0.703,-0.391 1.203,-0.391 0.695,0 1.254,0.242 1.672,0.734 0.425,0.5 0.64,1.157 0.64,1.969 l 0,0.281 -1.25,0 z m 2.516,0.532 0,-4.375 -1.266,0 0,1.156 c -0.281,-0.461 -0.64,-0.805 -1.078,-1.031 -0.43,-0.219 -0.949,-0.328 -1.562,-0.328 -0.782,0 -1.407,0.218 -1.875,0.656 -0.461,0.445 -0.688,1.039 -0.688,1.781 0,0.852 0.285,1.5 0.859,1.938 0.583,0.437 1.442,0.656 2.579,0.656 l 1.765,0 0,0.125 c 0,0.582 -0.195,1.031 -0.578,1.344 -0.375,0.32 -0.906,0.484 -1.594,0.484 -0.437,0 -0.867,-0.059 -1.281,-0.172 -0.418,-0.105 -0.812,-0.262 -1.187,-0.469 l 0,1.172 c 0.457,0.176 0.898,0.305 1.328,0.391 0.437,0.094 0.859,0.14 1.265,0.14 1.114,0 1.942,-0.289 2.485,-0.859 0.551,-0.574 0.828,-1.445 0.828,-2.609 z"
         style="fill:#b3b3b3;fill-opacity:1;fill-rule:nonzero;stroke:none"
         id="path3537"
         inkscape:connector-curvature="0" /><path
         d="m 163.652,10.569 0,-7.656 -1.265,0 0,6.672 -3.438,0 0,-6.672 -1.265,0 0,6.672 -1.204,0 0,0.984 1.204,0 0,0.531 c 0,0.832 0.191,1.445 0.578,1.844 0.394,0.406 1.004,0.609 1.828,0.609 l 1.265,0 0,-1.047 -1.203,0 c -0.461,0 -0.777,-0.093 -0.953,-0.281 -0.168,-0.18 -0.25,-0.508 -0.25,-0.984 l 0,-0.672 4.703,0 z m -1.265,2.969 1.265,0 0,-1.594 -1.265,0 0,1.594 z"
         style="fill:#b3b3b3;fill-opacity:1;fill-rule:nonzero;stroke:none"
         id="path3539"
         inkscape:connector-curvature="0" /><path
         d="m 166.297,13.553 1.266,0 0,-10.641 -1.266,0 0,10.641 z"
         style="fill:#b3b3b3;fill-opacity:1;fill-rule:nonzero;stroke:none"
         id="path3541"
         inkscape:connector-curvature="0" /><path
         d="m 176.742,7.053 0,-0.609 -5.797,0 c 0.063,-0.867 0.321,-1.527 0.782,-1.984 0.468,-0.45 1.117,-0.672 1.953,-0.672 0.488,0 0.957,0.054 1.406,0.172 0.457,0.113 0.91,0.289 1.359,0.531 l 0,-1.188 C 175.984,3.116 175.516,2.967 175.039,2.866 174.57,2.764 174.094,2.71 173.617,2.71 c -1.23,0 -2.203,0.351 -2.922,1.062 -0.711,0.719 -1.062,1.68 -1.062,2.891 0,1.257 0.336,2.254 1.015,2.984 0.676,0.738 1.594,1.109 2.75,1.109 1.032,0 1.844,-0.336 2.438,-1 0.602,-0.656 0.906,-1.558 0.906,-2.703 z m -1.265,0.375 c -0.012,0.688 -0.204,1.235 -0.579,1.641 -0.375,0.414 -0.871,0.625 -1.484,0.625 -0.711,0 -1.277,-0.203 -1.703,-0.609 -0.418,-0.399 -0.656,-0.954 -0.719,-1.672 l 4.485,0.015 z"
         style="fill:#b3b3b3;fill-opacity:1;fill-rule:nonzero;stroke:none"
         id="path3543"
         inkscape:connector-curvature="0" /><path
         d="m 188.141,10.35 0,-1.203 c -0.356,0.188 -0.727,0.32 -1.11,0.406 -0.386,0.094 -0.781,0.141 -1.187,0.141 -0.625,0 -1.094,-0.094 -1.406,-0.281 -0.313,-0.188 -0.469,-0.477 -0.469,-0.86 0,-0.293 0.109,-0.523 0.328,-0.687 0.226,-0.168 0.68,-0.324 1.359,-0.469 l 0.422,-0.109 c 0.895,-0.188 1.531,-0.461 1.906,-0.813 0.375,-0.344 0.563,-0.828 0.563,-1.453 0,-0.711 -0.281,-1.273 -0.844,-1.687 -0.562,-0.418 -1.336,-0.625 -2.312,-0.625 -0.418,0 -0.852,0.043 -1.297,0.125 -0.438,0.082 -0.903,0.203 -1.391,0.359 l 0,1.297 c 0.457,-0.242 0.91,-0.422 1.359,-0.547 0.458,-0.117 0.907,-0.172 1.344,-0.172 0.594,0 1.047,0.098 1.36,0.297 0.32,0.207 0.484,0.492 0.484,0.859 0,0.344 -0.117,0.602 -0.344,0.782 -0.23,0.187 -0.734,0.363 -1.515,0.531 l -0.438,0.109 c -0.773,0.156 -1.336,0.406 -1.687,0.75 -0.344,0.344 -0.516,0.805 -0.516,1.391 0,0.726 0.254,1.285 0.766,1.672 0.507,0.394 1.234,0.593 2.172,0.593 0.468,0 0.906,-0.039 1.312,-0.109 0.414,-0.062 0.797,-0.164 1.141,-0.297 z"
         style="fill:#b3b3b3;fill-opacity:1;fill-rule:nonzero;stroke:none"
         id="path3545"
         inkscape:connector-curvature="0" /><path
         d="m 197.113,7.053 0,-0.609 -5.797,0 c 0.063,-0.867 0.321,-1.527 0.782,-1.984 0.468,-0.45 1.117,-0.672 1.953,-0.672 0.488,0 0.957,0.054 1.406,0.172 0.457,0.113 0.91,0.289 1.359,0.531 l 0,-1.188 C 196.355,3.116 195.887,2.967 195.41,2.866 194.941,2.764 194.465,2.71 193.988,2.71 c -1.23,0 -2.203,0.351 -2.922,1.062 -0.711,0.719 -1.062,1.68 -1.062,2.891 0,1.257 0.336,2.254 1.016,2.984 0.675,0.738 1.593,1.109 2.75,1.109 1.031,0 1.843,-0.336 2.437,-1 0.602,-0.656 0.906,-1.558 0.906,-2.703 z m -1.265,0.375 c -0.012,0.688 -0.203,1.235 -0.578,1.641 -0.375,0.414 -0.872,0.625 -1.485,0.625 -0.711,0 -1.277,-0.203 -1.703,-0.609 -0.418,-0.399 -0.656,-0.954 -0.719,-1.672 l 4.485,0.015 z"
         style="fill:#b3b3b3;fill-opacity:1;fill-rule:nonzero;stroke:none"
         id="path3547"
         inkscape:connector-curvature="0" /><path
         d="m 199.164,13.553 1.266,0 0,-10.641 -1.266,0 0,10.641 z"
         style="fill:#b3b3b3;fill-opacity:1;fill-rule:nonzero;stroke:none"
         id="path3549"
         inkscape:connector-curvature="0" /><path
         d="m 209.609,7.053 0,-0.609 -5.797,0 c 0.063,-0.867 0.321,-1.527 0.782,-1.984 0.468,-0.45 1.117,-0.672 1.953,-0.672 0.488,0 0.957,0.054 1.406,0.172 0.457,0.113 0.91,0.289 1.359,0.531 l 0,-1.188 c -0.46,-0.187 -0.929,-0.336 -1.406,-0.437 -0.468,-0.102 -0.945,-0.156 -1.422,-0.156 -1.23,0 -2.203,0.351 -2.922,1.062 -0.71,0.719 -1.062,1.68 -1.062,2.891 0,1.257 0.336,2.254 1.016,2.984 0.675,0.738 1.593,1.109 2.75,1.109 1.031,0 1.843,-0.336 2.437,-1 0.602,-0.656 0.906,-1.558 0.906,-2.703 z m -1.265,0.375 c -0.012,0.688 -0.203,1.235 -0.578,1.641 -0.375,0.414 -0.871,0.625 -1.485,0.625 -0.711,0 -1.277,-0.203 -1.703,-0.609 -0.418,-0.399 -0.656,-0.954 -0.719,-1.672 l 4.485,0.015 z"
         style="fill:#b3b3b3;fill-opacity:1;fill-rule:nonzero;stroke:none"
         id="path3551"
         inkscape:connector-curvature="0" /><path
         d="m 217.176,10.272 0,-1.172 c -0.356,0.195 -0.715,0.344 -1.078,0.438 -0.356,0.101 -0.715,0.156 -1.078,0.156 -0.813,0 -1.45,-0.262 -1.907,-0.781 -0.449,-0.524 -0.672,-1.246 -0.672,-2.172 0,-0.938 0.223,-1.668 0.672,-2.188 0.457,-0.511 1.094,-0.765 1.907,-0.765 0.363,0 0.722,0.047 1.078,0.14 0.363,0.094 0.722,0.239 1.078,0.438 l 0,-1.156 C 216.82,3.042 216.457,2.917 216.082,2.835 215.707,2.753 215.309,2.71 214.895,2.71 c -1.157,0 -2.079,0.359 -2.766,1.078 -0.68,0.726 -1.016,1.711 -1.016,2.953 0,1.238 0.344,2.219 1.032,2.937 0.687,0.719 1.628,1.078 2.828,1.078 0.382,0 0.757,-0.043 1.125,-0.125 0.375,-0.074 0.734,-0.195 1.078,-0.359 z"
         style="fill:#b3b3b3;fill-opacity:1;fill-rule:nonzero;stroke:none"
         id="path3553"
         inkscape:connector-curvature="0" /><path
         d="m 220.621,12.741 0,-2.172 2.594,0 0,-0.984 -2.594,0 0,-4.157 c 0,-0.617 0.082,-1.015 0.25,-1.203 0.176,-0.18 0.524,-0.265 1.047,-0.265 l 1.297,0 0,-1.047 -1.297,0 c -0.969,0 -1.641,0.179 -2.016,0.547 -0.367,0.363 -0.547,1.019 -0.547,1.968 l 0,4.157 -0.921,0 0,0.984 0.921,0 0,2.172 1.266,0 z"
         style="fill:#b3b3b3;fill-opacity:1;fill-rule:nonzero;stroke:none"
         id="path3555"
         inkscape:connector-curvature="0" /><path
         d="m 227.836,9.694 c -0.668,0 -1.199,-0.266 -1.594,-0.797 -0.398,-0.523 -0.594,-1.242 -0.594,-2.156 0,-0.918 0.192,-1.641 0.579,-2.172 0.394,-0.524 0.929,-0.781 1.609,-0.781 0.676,0 1.207,0.257 1.594,0.781 0.394,0.531 0.593,1.254 0.593,2.172 0,0.906 -0.199,1.625 -0.593,2.156 -0.387,0.531 -0.918,0.797 -1.594,0.797 z m 0,1.062 c 1.094,0 1.953,-0.359 2.578,-1.078 0.625,-0.711 0.938,-1.687 0.938,-2.937 0,-1.262 -0.313,-2.25 -0.938,-2.969 -0.625,-0.711 -1.484,-1.062 -2.578,-1.062 -1.094,0 -1.953,0.351 -2.578,1.062 -0.625,0.719 -0.938,1.707 -0.938,2.969 0,1.25 0.313,2.226 0.938,2.937 0.625,0.719 1.484,1.078 2.578,1.078 z"
         style="fill:#b3b3b3;fill-opacity:1;fill-rule:nonzero;stroke:none"
         id="path3557"
         inkscape:connector-curvature="0" /><path
         d="m 237.863,9.397 c -0.136,0.082 -0.289,0.141 -0.453,0.172 -0.168,0.039 -0.351,0.062 -0.547,0.062 -0.718,0 -1.273,-0.234 -1.656,-0.703 -0.375,-0.461 -0.562,-1.121 -0.562,-1.984 l 0,-4.031 -1.266,0 0,7.656 1.266,0 0,-1.188 c 0.269,0.469 0.613,0.813 1.031,1.032 0.426,0.226 0.941,0.343 1.547,0.343 0.093,0 0.191,-0.007 0.297,-0.015 0.101,-0.012 0.218,-0.031 0.343,-0.063 l 0,-1.281 z"
         style="fill:#b3b3b3;fill-opacity:1;fill-rule:nonzero;stroke:none"
         id="path3559"
         inkscape:connector-curvature="0" /><path
         d="m 239.383,4.647 1.438,0 0,-1.734 -1.438,0 0,1.734 z"
         style="fill:#00ffff;fill-opacity:1;fill-rule:nonzero;stroke:none"
         id="path3561"
         inkscape:connector-curvature="0" /></g></g></svg>