<?xml version="1.0" encoding="UTF-8" standalone="no"?>
<svg
   xmlns:dc="http://purl.org/dc/elements/1.1/"
   xmlns:cc="http://creativecommons.org/ns#"
   xmlns:rdf="http://www.w3.org/1999/02/22-rdf-syntax-ns#"
   xmlns:svg="http://www.w3.org/2000/svg"
   xmlns="http://www.w3.org/2000/svg"
   viewBox="0 0 390.33203 203.85806"
   height="203.85806"
   width="390.33203"
   xml:space="preserve"
   version="1.1"
   id="svg4248"><metadata
     id="metadata4254"><rdf:RDF><cc:Work
         rdf:about=""><dc:format>image/svg+xml</dc:format><dc:type
           rdf:resource="http://purl.org/dc/dcmitype/StillImage" /><dc:title></dc:title></cc:Work></rdf:RDF></metadata><defs
     id="defs4252" /><g
     transform="matrix(1.25,0,0,-1.25,0,203.85807)"
     id="g4256"><g
       id="g4258"><path
         id="path4260"
         style="fill:#ffff00;fill-opacity:1;fill-rule:nonzero;stroke:none"
         d="m 26.082,162.047 13.719,0 0,-53.219 -13.719,0 0,53.219 z" /><path
         id="path4262"
         style="fill:#ffff00;fill-opacity:1;fill-rule:nonzero;stroke:none"
         d="m 85.043,147.501 0,-10.407 c -1.742,1.188 -3.484,2.067 -5.234,2.641 -1.743,0.57 -3.547,0.859 -5.422,0.859 -3.563,0 -6.34,-1.043 -8.328,-3.125 -1.981,-2.086 -2.969,-4.992 -2.969,-8.718 0,-3.731 0.988,-6.637 2.969,-8.719 1.988,-2.074 4.765,-3.11 8.328,-3.11 1.988,0 3.879,0.297 5.672,0.891 1.8,0.594 3.461,1.473 4.984,2.641 l 0,-10.453 c -2,-0.731 -4.027,-1.274 -6.078,-1.641 -2.055,-0.375 -4.117,-0.563 -6.188,-0.563 -7.199,0 -12.828,1.844 -16.89,5.532 -4.063,3.695 -6.094,8.836 -6.094,15.422 0,6.582 2.031,11.722 6.094,15.421 4.062,3.696 9.691,5.547 16.89,5.547 2.094,0 4.157,-0.187 6.188,-0.562 2.031,-0.367 4.055,-0.918 6.078,-1.656 z" /><path
         id="path4264"
         style="fill:#ffff00;fill-opacity:1;fill-rule:nonzero;stroke:none"
         d="m 90.949,148.751 12.766,0 10.719,-27.094 9.125,27.094 12.765,0 -16.781,-43.704 c -1.688,-4.437 -3.656,-7.539 -5.906,-9.312 -2.25,-1.77 -5.215,-2.656 -8.891,-2.656 l -7.375,0 0,8.375 3.984,0 c 2.165,0 3.739,0.343 4.719,1.031 0.988,0.687 1.758,1.922 2.313,3.703 l 0.343,1.109 -17.781,41.454 z" /><path
         id="path4266"
         style="fill:#ffff00;fill-opacity:1;fill-rule:nonzero;stroke:none"
         d="m 181.484,160.376 0,-11.266 c -2.918,1.301 -5.765,2.285 -8.546,2.953 -2.782,0.664 -5.415,1 -7.891,1 -3.274,0 -5.695,-0.453 -7.266,-1.359 -1.562,-0.899 -2.343,-2.297 -2.343,-4.203 0,-1.43 0.523,-2.543 1.578,-3.344 1.062,-0.793 2.976,-1.469 5.75,-2.031 l 5.859,-1.188 c 5.914,-1.187 10.117,-2.996 12.609,-5.422 2.5,-2.418 3.75,-5.859 3.75,-10.328 0,-5.867 -1.746,-10.23 -5.234,-13.094 -3.48,-2.867 -8.793,-4.297 -15.938,-4.297 -3.374,0 -6.765,0.325 -10.171,0.969 -3.399,0.633 -6.793,1.582 -10.188,2.844 l 0,11.578 c 3.395,-1.805 6.676,-3.164 9.844,-4.078 3.176,-0.918 6.238,-1.375 9.187,-1.375 3,0 5.289,0.5 6.875,1.5 1.594,1 2.391,2.426 2.391,4.281 0,1.664 -0.543,2.945 -1.625,3.844 -1.074,0.906 -3.23,1.711 -6.469,2.422 l -5.297,1.187 c -5.324,1.133 -9.218,2.946 -11.687,5.438 -2.461,2.5 -3.688,5.863 -3.688,10.094 0,5.3 1.707,9.378 5.125,12.234 3.426,2.851 8.348,4.281 14.766,4.281 2.926,0 5.93,-0.226 9.016,-0.672 3.093,-0.437 6.289,-1.093 9.593,-1.968 z" /><path
         id="path4268"
         style="fill:#ffff00;fill-opacity:1;fill-rule:nonzero;stroke:none"
         d="m 236.422,128.891 0,-3.625 -29.844,0 c 0.313,-3 1.395,-5.25 3.25,-6.75 1.852,-1.492 4.442,-2.234 7.766,-2.234 2.687,0 5.437,0.394 8.25,1.187 2.82,0.801 5.718,2.008 8.687,3.625 l 0,-9.843 c -3.023,-1.137 -6.043,-1.997 -9.062,-2.579 -3.012,-0.582 -6.028,-0.875 -9.047,-0.875 -7.219,0 -12.836,1.832 -16.844,5.5 -4,3.676 -6,8.829 -6,15.454 0,6.507 1.961,11.628 5.891,15.359 3.937,3.738 9.347,5.609 16.234,5.609 6.281,0 11.301,-1.89 15.063,-5.672 3.769,-3.781 5.656,-8.836 5.656,-15.156 z m -13.125,4.25 c 0,2.426 -0.711,4.379 -2.125,5.86 -1.406,1.488 -3.25,2.234 -5.531,2.234 -2.469,0 -4.481,-0.699 -6.032,-2.094 -1.543,-1.387 -2.5,-3.387 -2.875,-6 l 16.563,0 z" /><path
         id="path4270"
         style="fill:#ffff00;fill-opacity:1;fill-rule:nonzero;stroke:none"
         d="m 264.859,140.438 c -2.711,0 -4.781,-1 -6.218,-3 -1.438,-1.992 -2.157,-4.887 -2.157,-8.687 0,-3.805 0.719,-6.704 2.157,-8.704 1.437,-1.992 3.507,-2.984 6.218,-2.984 2.739,0 4.829,0.992 6.266,2.984 1.437,2 2.156,4.899 2.156,8.704 0,3.8 -0.719,6.695 -2.156,8.687 -1.437,2 -3.527,3 -6.266,3 z m 8.422,-25.828 c -1.761,-2.356 -3.699,-4.078 -5.812,-5.172 -2.117,-1.094 -4.563,-1.641 -7.344,-1.641 -4.918,0 -8.961,1.954 -12.125,5.86 -3.156,3.906 -4.734,8.937 -4.734,15.094 0,6.156 1.578,11.175 4.734,15.062 3.164,3.883 7.207,5.828 12.125,5.828 2.781,0 5.227,-0.547 7.344,-1.64 2.113,-1.094 4.051,-2.821 5.812,-5.172 l 0,5.922 12.828,0 0,-55.11 -12.828,0 0,20.969 z" /><path
         id="path4272"
         style="fill:#ffffff;fill-opacity:1;fill-rule:nonzero;stroke:none"
         d="m 21.906,67.114 0,-11.328 2.375,0 c 2.02,0 3.492,0.453 4.422,1.359 0.938,0.914 1.406,2.359 1.406,4.328 0,1.945 -0.468,3.375 -1.406,4.281 -0.93,0.907 -2.402,1.36 -4.422,1.36 l -2.375,0 z m -1.968,1.625 4.046,0 c 2.821,0 4.895,-0.59 6.219,-1.766 1.32,-1.168 1.985,-3 1.985,-5.5 0,-2.523 -0.668,-4.371 -2,-5.547 -1.325,-1.179 -3.391,-1.765 -6.204,-1.765 l -4.046,0 0,14.578 z" /><path
         id="path4274"
         style="fill:#ffffff;fill-opacity:1;fill-rule:nonzero;stroke:none"
         d="m 41.578,63.426 c -0.199,0.114 -0.418,0.196 -0.656,0.25 -0.242,0.051 -0.5,0.078 -0.781,0.078 -1.024,0 -1.805,-0.328 -2.344,-0.984 -0.543,-0.656 -0.813,-1.605 -0.813,-2.844 l 0,-5.765 -1.812,0 0,10.937 1.812,0 0,-1.703 c 0.375,0.664 0.864,1.16 1.469,1.484 0.602,0.321 1.344,0.485 2.219,0.485 0.113,0 0.242,-0.012 0.39,-0.031 0.157,-0.012 0.329,-0.032 0.516,-0.063 l 0,-1.844 z" /><path
         id="path4276"
         style="fill:#ffffff;fill-opacity:1;fill-rule:nonzero;stroke:none"
         d="m 47.297,63.833 c -0.969,0 -1.735,-0.375 -2.297,-1.125 -0.555,-0.75 -0.828,-1.782 -0.828,-3.094 0,-1.305 0.273,-2.336 0.828,-3.094 0.562,-0.75 1.328,-1.125 2.297,-1.125 0.957,0 1.711,0.375 2.265,1.125 0.563,0.758 0.844,1.789 0.844,3.094 0,1.301 -0.281,2.328 -0.844,3.078 -0.554,0.758 -1.308,1.141 -2.265,1.141 z m 0,1.531 c 1.562,0 2.785,-0.512 3.672,-1.531 0.894,-1.012 1.343,-2.418 1.343,-4.219 0,-1.781 -0.449,-3.184 -1.343,-4.203 -0.887,-1.024 -2.11,-1.532 -3.672,-1.532 -1.574,0 -2.805,0.508 -3.688,1.532 -0.886,1.019 -1.328,2.422 -1.328,4.203 0,1.801 0.442,3.207 1.328,4.219 0.883,1.019 2.114,1.531 3.688,1.531 z" /><path
         id="path4278"
         style="fill:#ffffff;fill-opacity:1;fill-rule:nonzero;stroke:none"
         d="m 57.023,55.801 0,-5.797 -1.812,0 0,15.094 1.812,0 0,-1.656 c 0.375,0.644 0.848,1.125 1.422,1.437 0.582,0.321 1.274,0.485 2.078,0.485 1.321,0 2.399,-0.531 3.235,-1.594 0.832,-1.055 1.25,-2.437 1.25,-4.156 0,-1.719 -0.418,-3.106 -1.25,-4.156 -0.836,-1.055 -1.914,-1.579 -3.235,-1.579 -0.804,0 -1.496,0.157 -2.078,0.469 -0.574,0.32 -1.047,0.805 -1.422,1.453 z m 6.11,3.813 c 0,1.32 -0.274,2.359 -0.813,3.109 -0.543,0.758 -1.289,1.141 -2.234,1.141 -0.961,0 -1.711,-0.383 -2.25,-1.141 -0.543,-0.75 -0.813,-1.789 -0.813,-3.109 0,-1.313 0.27,-2.352 0.813,-3.11 0.539,-0.75 1.289,-1.125 2.25,-1.125 0.945,0 1.691,0.375 2.234,1.125 0.539,0.758 0.813,1.797 0.813,3.11 z" /><path
         id="path4280"
         style="fill:#ffffff;fill-opacity:1;fill-rule:nonzero;stroke:none"
         d="m 79.883,69.364 0,-1.5 -1.719,0 c -0.648,0 -1.094,-0.133 -1.344,-0.391 -0.25,-0.262 -0.375,-0.73 -0.375,-1.406 l 0,-0.969 2.953,0 0,-1.39 -2.953,0 0,-9.547 -1.812,0 0,9.547 -1.719,0 0,1.39 1.719,0 0,0.766 c 0,1.219 0.281,2.101 0.844,2.656 0.57,0.563 1.472,0.844 2.703,0.844 l 1.703,0 z" /><path
         id="path4282"
         style="fill:#ffffff;fill-opacity:1;fill-rule:nonzero;stroke:none"
         d="m 86.352,59.661 c -1.461,0 -2.469,-0.168 -3.032,-0.5 -0.554,-0.336 -0.828,-0.903 -0.828,-1.703 0,-0.637 0.207,-1.141 0.625,-1.516 0.426,-0.375 1,-0.563 1.719,-0.563 1,0 1.797,0.352 2.391,1.063 0.601,0.707 0.906,1.644 0.906,2.812 l 0,0.407 -1.781,0 z m 3.578,0.734 0,-6.234 -1.797,0 0,1.656 c -0.406,-0.656 -0.918,-1.149 -1.531,-1.469 -0.618,-0.312 -1.368,-0.469 -2.25,-0.469 -1.118,0 -2.008,0.313 -2.672,0.938 -0.657,0.633 -0.985,1.476 -0.985,2.531 0,1.227 0.41,2.156 1.235,2.781 0.82,0.625 2.05,0.938 3.687,0.938 l 2.516,0 0,0.172 c 0,0.832 -0.274,1.472 -0.813,1.922 -0.543,0.445 -1.308,0.672 -2.297,0.672 -0.625,0 -1.234,-0.075 -1.828,-0.219 -0.586,-0.149 -1.152,-0.371 -1.703,-0.672 l 0,1.656 c 0.656,0.258 1.289,0.453 1.906,0.578 0.625,0.125 1.227,0.188 1.813,0.188 1.582,0 2.766,-0.414 3.547,-1.235 0.781,-0.824 1.172,-2.07 1.172,-3.734 z" /><path
         id="path4284"
         style="fill:#ffffff;fill-opacity:1;fill-rule:nonzero;stroke:none"
         d="m 100.617,64.77 0,-1.687 c -0.512,0.257 -1.043,0.453 -1.594,0.578 -0.543,0.132 -1.105,0.203 -1.687,0.203 -0.898,0 -1.57,-0.141 -2.016,-0.422 -0.437,-0.274 -0.656,-0.68 -0.656,-1.219 0,-0.418 0.156,-0.746 0.469,-0.984 0.32,-0.242 0.961,-0.469 1.922,-0.688 l 0.625,-0.125 c 1.269,-0.281 2.172,-0.672 2.703,-1.172 0.539,-0.492 0.812,-1.183 0.812,-2.078 0,-1.011 -0.402,-1.812 -1.203,-2.406 -0.804,-0.594 -1.906,-0.891 -3.312,-0.891 -0.586,0 -1.196,0.059 -1.828,0.172 -0.637,0.114 -1.309,0.285 -2.016,0.516 l 0,1.844 c 0.664,-0.344 1.32,-0.606 1.969,-0.782 0.644,-0.168 1.285,-0.25 1.922,-0.25 0.843,0 1.488,0.145 1.937,0.438 0.457,0.289 0.688,0.695 0.688,1.219 0,0.488 -0.168,0.863 -0.5,1.125 -0.325,0.257 -1.043,0.507 -2.157,0.75 l -0.625,0.156 c -1.117,0.226 -1.922,0.582 -2.422,1.062 -0.492,0.489 -0.734,1.161 -0.734,2.016 0,1.02 0.363,1.813 1.094,2.375 0.726,0.563 1.765,0.844 3.109,0.844 0.664,0 1.289,-0.055 1.875,-0.156 0.582,-0.094 1.125,-0.243 1.625,-0.438 z" /><path
         id="path4286"
         style="fill:#ffffff;fill-opacity:1;fill-rule:nonzero;stroke:none"
         d="m 105.844,68.208 0,-3.11 3.703,0 0,-1.39 -3.703,0 0,-5.938 c 0,-0.898 0.117,-1.477 0.359,-1.734 0.25,-0.25 0.75,-0.375 1.5,-0.375 l 1.844,0 0,-1.5 -1.844,0 c -1.387,0 -2.344,0.254 -2.875,0.765 -0.523,0.52 -0.781,1.469 -0.781,2.844 l 0,5.938 -1.328,0 0,1.39 1.328,0 0,3.11 1.797,0 z" /><path
         id="path4288"
         style="fill:#ffffff;fill-opacity:1;fill-rule:nonzero;stroke:none"
         d="m 116.898,59.661 c -1.46,0 -2.468,-0.168 -3.031,-0.5 -0.555,-0.336 -0.828,-0.903 -0.828,-1.703 0,-0.637 0.207,-1.141 0.625,-1.516 0.426,-0.375 1,-0.563 1.719,-0.563 1,0 1.797,0.352 2.39,1.063 0.602,0.707 0.907,1.644 0.907,2.812 l 0,0.407 -1.782,0 z m 3.579,0.734 0,-6.234 -1.797,0 0,1.656 c -0.407,-0.656 -0.918,-1.149 -1.532,-1.469 -0.617,-0.312 -1.367,-0.469 -2.25,-0.469 -1.117,0 -2.007,0.313 -2.671,0.938 -0.657,0.633 -0.985,1.476 -0.985,2.531 0,1.227 0.41,2.156 1.235,2.781 0.82,0.625 2.05,0.938 3.687,0.938 l 2.516,0 0,0.172 c 0,0.832 -0.274,1.472 -0.813,1.922 -0.543,0.445 -1.308,0.672 -2.297,0.672 -0.625,0 -1.234,-0.075 -1.828,-0.219 -0.586,-0.149 -1.152,-0.371 -1.703,-0.672 l 0,1.656 c 0.656,0.258 1.289,0.453 1.906,0.578 0.625,0.125 1.227,0.188 1.813,0.188 1.582,0 2.765,-0.414 3.547,-1.235 0.781,-0.824 1.172,-2.07 1.172,-3.734 z" /><path
         id="path4290"
         style="fill:#ffffff;fill-opacity:1;fill-rule:nonzero;stroke:none"
         d="m 127.383,68.739 1.656,0 -5.078,-16.438 -1.656,0 5.078,16.438 z" /><path
         id="path4292"
         style="fill:#ffffff;fill-opacity:1;fill-rule:nonzero;stroke:none"
         d="m 140.047,60.77 0,-6.609 -1.797,0 0,6.547 c 0,1.031 -0.203,1.8 -0.609,2.312 -0.407,0.52 -1.012,0.781 -1.813,0.781 -0.98,0 -1.75,-0.312 -2.312,-0.937 -0.555,-0.617 -0.828,-1.453 -0.828,-2.516 l 0,-6.187 -1.813,0 0,10.937 1.813,0 0,-1.703 c 0.425,0.656 0.929,1.145 1.515,1.469 0.582,0.332 1.254,0.5 2.016,0.5 1.258,0 2.211,-0.391 2.859,-1.172 0.645,-0.774 0.969,-1.914 0.969,-3.422 z" /><path
         id="path4294"
         style="fill:#ffffff;fill-opacity:1;fill-rule:nonzero;stroke:none"
         d="m 152.992,60.083 0,-0.875 -8.25,0 c 0.07,-1.243 0.442,-2.188 1.11,-2.844 0.664,-0.649 1.597,-0.969 2.796,-0.969 0.688,0 1.352,0.082 2,0.25 0.645,0.176 1.29,0.43 1.938,0.766 l 0,-1.688 c -0.648,-0.281 -1.309,-0.492 -1.984,-0.625 -0.68,-0.144 -1.368,-0.219 -2.063,-0.219 -1.75,0 -3.137,0.504 -4.156,1.516 -1.012,1.02 -1.516,2.395 -1.516,4.125 0,1.789 0.477,3.211 1.438,4.266 0.968,1.05 2.273,1.578 3.922,1.578 1.468,0 2.628,-0.477 3.484,-1.422 0.851,-0.949 1.281,-2.234 1.281,-3.859 z m -1.797,0.531 c -0.011,0.976 -0.289,1.758 -0.828,2.344 -0.531,0.582 -1.242,0.875 -2.125,0.875 -1,0 -1.804,-0.282 -2.406,-0.844 -0.606,-0.563 -0.953,-1.36 -1.047,-2.391 l 6.406,0.016 z" /><path
         id="path4296"
         style="fill:#ffffff;fill-opacity:1;fill-rule:nonzero;stroke:none"
         d="m 164.695,65.098 -3.968,-5.328 4.171,-5.609 -2.125,0 -3.187,4.297 -3.172,-4.297 -2.125,0 4.25,5.718 -3.891,5.219 2.125,0 2.891,-3.89 2.906,3.89 2.125,0 z" /><path
         id="path4298"
         style="fill:#ffffff;fill-opacity:1;fill-rule:nonzero;stroke:none"
         d="m 167.25,58.473 0,6.625 1.797,0 0,-6.547 c 0,-1.043 0.195,-1.824 0.594,-2.343 0.406,-0.512 1.015,-0.766 1.828,-0.766 0.969,0 1.734,0.305 2.297,0.922 0.562,0.625 0.843,1.469 0.843,2.531 l 0,6.203 1.797,0 0,-10.937 -1.797,0 0,1.687 c -0.437,-0.668 -0.945,-1.164 -1.515,-1.484 -0.574,-0.321 -1.246,-0.485 -2.016,-0.485 -1.25,0 -2.203,0.391 -2.859,1.172 -0.649,0.782 -0.969,1.922 -0.969,3.422 z m 4.516,6.891 z" /><path
         id="path4300"
         style="fill:#ffffff;fill-opacity:1;fill-rule:nonzero;stroke:none"
         d="m 187.102,64.77 0,-1.687 c -0.512,0.257 -1.043,0.453 -1.594,0.578 -0.543,0.132 -1.106,0.203 -1.688,0.203 -0.898,0 -1.57,-0.141 -2.015,-0.422 -0.438,-0.274 -0.657,-0.68 -0.657,-1.219 0,-0.418 0.157,-0.746 0.469,-0.984 0.321,-0.242 0.961,-0.469 1.922,-0.688 l 0.625,-0.125 c 1.27,-0.281 2.172,-0.672 2.703,-1.172 0.539,-0.492 0.813,-1.183 0.813,-2.078 0,-1.011 -0.403,-1.812 -1.203,-2.406 -0.805,-0.594 -1.907,-0.891 -3.313,-0.891 -0.586,0 -1.195,0.059 -1.828,0.172 -0.637,0.114 -1.309,0.285 -2.016,0.516 l 0,1.844 c 0.664,-0.344 1.321,-0.606 1.969,-0.782 0.645,-0.168 1.285,-0.25 1.922,-0.25 0.844,0 1.488,0.145 1.937,0.438 0.457,0.289 0.688,0.695 0.688,1.219 0,0.488 -0.168,0.863 -0.5,1.125 -0.324,0.257 -1.043,0.507 -2.156,0.75 l -0.625,0.156 c -1.117,0.226 -1.922,0.582 -2.422,1.062 -0.492,0.489 -0.735,1.161 -0.735,2.016 0,1.02 0.364,1.813 1.094,2.375 0.727,0.563 1.766,0.844 3.11,0.844 0.664,0 1.289,-0.055 1.875,-0.156 0.582,-0.094 1.125,-0.243 1.625,-0.438 z" /><path
         id="path4302"
         style="fill:#ffffff;fill-opacity:1;fill-rule:nonzero;stroke:none"
         d="m 205.758,65.098 0,-10.937 -1.797,0 0,9.547 -4.938,0 0,-9.547 -1.812,0 0,9.547 -1.719,0 0,1.39 1.719,0 0,0.766 c 0,1.187 0.281,2.066 0.844,2.64 0.57,0.571 1.437,0.86 2.593,0.86 l 1.813,0 0,-1.5 -1.719,0 c -0.648,0 -1.094,-0.133 -1.344,-0.391 -0.25,-0.262 -0.375,-0.73 -0.375,-1.406 l 0,-0.969 6.735,0 z m -1.797,4.235 1.797,0 0,-2.266 -1.797,0 0,2.266 z" /><path
         id="path4304"
         style="fill:#ffffff;fill-opacity:1;fill-rule:nonzero;stroke:none"
         d="m 209.547,69.364 1.797,0 0,-15.203 -1.797,0 0,15.203 z" /><path
         id="path4306"
         style="fill:#ffffff;fill-opacity:1;fill-rule:nonzero;stroke:none"
         d="m 224.438,60.083 0,-0.875 -8.25,0 c 0.07,-1.243 0.441,-2.188 1.109,-2.844 0.664,-0.649 1.598,-0.969 2.797,-0.969 0.687,0 1.351,0.082 2,0.25 0.644,0.176 1.289,0.43 1.937,0.766 l 0,-1.688 c -0.648,-0.281 -1.308,-0.492 -1.984,-0.625 -0.68,-0.144 -1.367,-0.219 -2.063,-0.219 -1.75,0 -3.136,0.504 -4.156,1.516 -1.012,1.02 -1.516,2.395 -1.516,4.125 0,1.789 0.477,3.211 1.438,4.266 0.969,1.05 2.273,1.578 3.922,1.578 1.469,0 2.629,-0.477 3.484,-1.422 0.852,-0.949 1.282,-2.234 1.282,-3.859 z m -1.797,0.531 c -0.012,0.976 -0.289,1.758 -0.829,2.344 -0.531,0.582 -1.242,0.875 -2.124,0.875 -1,0 -1.805,-0.282 -2.407,-0.844 -0.605,-0.563 -0.953,-1.36 -1.047,-2.391 l 6.407,0.016 z" /><path
         id="path4308"
         style="fill:#00ffff;fill-opacity:1;fill-rule:nonzero;stroke:none"
         d="m 233.844,68.739 1.968,0 0,-5.969 7.172,0 0,5.969 1.969,0 0,-14.578 -1.969,0 0,6.937 -7.172,0 0,-6.937 -1.968,0 0,14.578 z" /><path
         id="path4310"
         style="fill:#00ffff;fill-opacity:1;fill-rule:nonzero;stroke:none"
         d="m 248.883,68.739 9.219,0 0,-1.656 -7.25,0 0,-4.313 6.937,0 0,-1.672 -6.937,0 0,-5.281 7.421,0 0,-1.656 -9.39,0 0,14.578 z" /><path
         id="path4312"
         style="fill:#00ffff;fill-opacity:1;fill-rule:nonzero;stroke:none"
         d="m 268.445,61.004 c 0.426,-0.148 0.836,-0.453 1.235,-0.921 0.406,-0.469 0.804,-1.118 1.203,-1.938 l 2.015,-3.984 -2.125,0 -1.859,3.734 c -0.492,0.977 -0.965,1.625 -1.422,1.938 -0.449,0.32 -1.062,0.484 -1.844,0.484 l -2.14,0 0,-6.156 -1.969,0 0,14.578 4.453,0 c 1.664,0 2.906,-0.352 3.719,-1.047 0.82,-0.699 1.234,-1.75 1.234,-3.156 0,-0.918 -0.215,-1.68 -0.64,-2.282 -0.43,-0.605 -1.047,-1.023 -1.86,-1.25 z m -4.937,6.11 0,-5.172 2.484,0 c 0.946,0 1.66,0.219 2.141,0.656 0.488,0.445 0.734,1.094 0.734,1.938 0,0.851 -0.246,1.492 -0.734,1.922 -0.481,0.437 -1.195,0.656 -2.141,0.656 l -2.484,0 z" /><path
         id="path4314"
         style="fill:#00ffff;fill-opacity:1;fill-rule:nonzero;stroke:none"
         d="m 275.445,68.739 9.219,0 0,-1.656 -7.25,0 0,-4.313 6.938,0 0,-1.672 -6.938,0 0,-5.281 7.422,0 0,-1.656 -9.391,0 0,14.578 z" /><path
         id="path4316"
         style="fill:#ffffff;fill-opacity:1;fill-rule:nonzero;stroke:none"
         d="m 288.477,56.645 2.062,0 0,-1.687 -1.609,-3.125 -1.25,0 0.797,3.125 0,1.687 z" /><path
         id="path4318"
         style="fill:#ffffff;fill-opacity:1;fill-rule:nonzero;stroke:none"
         d="m 1.809,30.801 0,-5.797 -1.813,0 0,15.094 1.813,0 0,-1.656 c 0.375,0.644 0.847,1.125 1.421,1.437 0.582,0.321 1.274,0.485 2.079,0.485 1.32,0 2.398,-0.531 3.234,-1.594 0.832,-1.055 1.25,-2.437 1.25,-4.156 0,-1.719 -0.418,-3.106 -1.25,-4.156 -0.836,-1.055 -1.914,-1.579 -3.234,-1.579 -0.805,0 -1.497,0.157 -2.079,0.469 -0.574,0.32 -1.046,0.805 -1.421,1.453 z m 6.109,3.813 c 0,1.32 -0.273,2.359 -0.813,3.109 -0.543,0.758 -1.289,1.141 -2.234,1.141 -0.961,0 -1.711,-0.383 -2.25,-1.141 -0.543,-0.75 -0.812,-1.789 -0.812,-3.109 0,-1.313 0.269,-2.352 0.812,-3.11 0.539,-0.75 1.289,-1.125 2.25,-1.125 0.945,0 1.691,0.375 2.234,1.125 0.54,0.758 0.813,1.797 0.813,3.11 z" /><path
         id="path4320"
         style="fill:#ffffff;fill-opacity:1;fill-rule:nonzero;stroke:none"
         d="m 19.098,38.426 c -0.2,0.114 -0.418,0.196 -0.657,0.25 -0.242,0.051 -0.5,0.078 -0.781,0.078 -1.023,0 -1.805,-0.328 -2.344,-0.984 -0.543,-0.656 -0.812,-1.605 -0.812,-2.844 l 0,-5.765 -1.813,0 0,10.937 1.813,0 0,-1.703 c 0.375,0.664 0.863,1.16 1.469,1.484 0.601,0.321 1.343,0.485 2.218,0.485 0.114,0 0.243,-0.012 0.391,-0.031 0.156,-0.012 0.328,-0.032 0.516,-0.063 l 0,-1.844 z" /><path
         id="path4322"
         style="fill:#ffffff;fill-opacity:1;fill-rule:nonzero;stroke:none"
         d="m 29.926,35.083 0,-0.875 -8.25,0 c 0.07,-1.243 0.441,-2.188 1.109,-2.844 0.664,-0.649 1.598,-0.969 2.797,-0.969 0.688,0 1.352,0.082 2,0.25 0.645,0.176 1.289,0.43 1.938,0.766 l 0,-1.688 c -0.649,-0.281 -1.309,-0.492 -1.985,-0.625 -0.68,-0.144 -1.367,-0.219 -2.062,-0.219 -1.75,0 -3.137,0.504 -4.157,1.516 -1.011,1.02 -1.515,2.395 -1.515,4.125 0,1.789 0.476,3.211 1.437,4.266 0.969,1.05 2.274,1.578 3.922,1.578 1.469,0 2.629,-0.477 3.485,-1.422 0.851,-0.949 1.281,-2.234 1.281,-3.859 z m -1.797,0.531 c -0.012,0.976 -0.289,1.758 -0.828,2.344 -0.531,0.582 -1.242,0.875 -2.125,0.875 -1,0 -1.805,-0.282 -2.406,-0.844 -0.606,-0.563 -0.954,-1.36 -1.047,-2.391 l 6.406,0.016 z" /><path
         id="path4324"
         style="fill:#ffffff;fill-opacity:1;fill-rule:nonzero;stroke:none"
         d="m 39.855,39.77 0,-1.687 c -0.511,0.257 -1.043,0.453 -1.593,0.578 -0.543,0.132 -1.106,0.203 -1.688,0.203 -0.898,0 -1.57,-0.141 -2.015,-0.422 -0.438,-0.274 -0.657,-0.68 -0.657,-1.219 0,-0.418 0.157,-0.746 0.469,-0.984 0.32,-0.242 0.961,-0.469 1.922,-0.688 l 0.625,-0.125 c 1.27,-0.281 2.172,-0.672 2.703,-1.172 0.539,-0.492 0.813,-1.183 0.813,-2.078 0,-1.011 -0.403,-1.812 -1.204,-2.406 -0.804,-0.594 -1.906,-0.891 -3.312,-0.891 -0.586,0 -1.195,0.059 -1.828,0.172 -0.637,0.114 -1.309,0.285 -2.016,0.516 l 0,1.844 c 0.664,-0.344 1.321,-0.606 1.969,-0.782 0.645,-0.168 1.285,-0.25 1.922,-0.25 0.844,0 1.488,0.145 1.937,0.438 0.457,0.289 0.688,0.695 0.688,1.219 0,0.488 -0.168,0.863 -0.5,1.125 -0.324,0.257 -1.043,0.507 -2.156,0.75 l -0.625,0.156 c -1.118,0.226 -1.922,0.582 -2.422,1.062 -0.492,0.489 -0.735,1.161 -0.735,2.016 0,1.02 0.364,1.813 1.094,2.375 0.727,0.563 1.766,0.844 3.109,0.844 0.665,0 1.29,-0.055 1.875,-0.156 0.582,-0.094 1.125,-0.243 1.625,-0.438 z" /><path
         id="path4326"
         style="fill:#ffffff;fill-opacity:1;fill-rule:nonzero;stroke:none"
         d="m 50.285,39.77 0,-1.687 c -0.512,0.257 -1.043,0.453 -1.594,0.578 -0.543,0.132 -1.105,0.203 -1.687,0.203 -0.899,0 -1.57,-0.141 -2.016,-0.422 -0.437,-0.274 -0.656,-0.68 -0.656,-1.219 0,-0.418 0.156,-0.746 0.469,-0.984 0.32,-0.242 0.961,-0.469 1.922,-0.688 l 0.625,-0.125 c 1.269,-0.281 2.172,-0.672 2.703,-1.172 0.539,-0.492 0.812,-1.183 0.812,-2.078 0,-1.011 -0.402,-1.812 -1.203,-2.406 -0.805,-0.594 -1.906,-0.891 -3.312,-0.891 -0.586,0 -1.196,0.059 -1.828,0.172 -0.637,0.114 -1.309,0.285 -2.016,0.516 l 0,1.844 c 0.664,-0.344 1.32,-0.606 1.969,-0.782 0.644,-0.168 1.285,-0.25 1.922,-0.25 0.843,0 1.488,0.145 1.937,0.438 0.457,0.289 0.688,0.695 0.688,1.219 0,0.488 -0.168,0.863 -0.5,1.125 -0.325,0.257 -1.043,0.507 -2.157,0.75 l -0.625,0.156 c -1.117,0.226 -1.922,0.582 -2.422,1.062 -0.492,0.489 -0.734,1.161 -0.734,2.016 0,1.02 0.363,1.813 1.094,2.375 0.726,0.563 1.765,0.844 3.109,0.844 0.664,0 1.289,-0.055 1.875,-0.156 0.582,-0.094 1.125,-0.243 1.625,-0.438 z" /><path
         id="path4328"
         style="fill:#ffffff;fill-opacity:1;fill-rule:nonzero;stroke:none"
         d="m 61.801,43.739 0,-5.422 -1.656,0 0,5.422 1.656,0 z m 3.703,0 0,-5.422 -1.672,0 0,5.422 1.672,0 z" /><path
         id="path4330"
         style="fill:#00ffff;fill-opacity:1;fill-rule:nonzero;stroke:none"
         d="m 69.41,43.739 1.969,0 0,-12.922 7.094,0 0,-1.656 -9.063,0 0,14.578 z" /><path
         id="path4332"
         style="fill:#ffffff;fill-opacity:1;fill-rule:nonzero;stroke:none"
         d="m 82.152,43.739 0,-5.422 -1.656,0 0,5.422 1.656,0 z m 3.703,0 0,-5.422 -1.671,0 0,5.422 1.671,0 z" /><path
         id="path4334"
         style="fill:#ffffff;fill-opacity:1;fill-rule:nonzero;stroke:none"
         d="m 97.816,43.208 0,-3.11 3.704,0 0,-1.39 -3.704,0 0,-5.938 c 0,-0.898 0.118,-1.477 0.36,-1.734 0.25,-0.25 0.75,-0.375 1.5,-0.375 l 1.844,0 0,-1.5 -1.844,0 c -1.387,0 -2.344,0.254 -2.875,0.765 -0.524,0.52 -0.781,1.469 -0.781,2.844 l 0,5.938 -1.329,0 0,1.39 1.329,0 0,3.11 1.796,0 z" /><path
         id="path4336"
         style="fill:#ffffff;fill-opacity:1;fill-rule:nonzero;stroke:none"
         d="m 108.137,38.833 c -0.969,0 -1.735,-0.375 -2.297,-1.125 -0.555,-0.75 -0.828,-1.782 -0.828,-3.094 0,-1.305 0.273,-2.336 0.828,-3.094 0.562,-0.75 1.328,-1.125 2.297,-1.125 0.957,0 1.711,0.375 2.265,1.125 0.563,0.758 0.844,1.789 0.844,3.094 0,1.301 -0.281,2.328 -0.844,3.078 -0.554,0.758 -1.308,1.141 -2.265,1.141 z m 0,1.531 c 1.562,0 2.785,-0.512 3.672,-1.531 0.894,-1.012 1.343,-2.418 1.343,-4.219 0,-1.781 -0.449,-3.184 -1.343,-4.203 -0.887,-1.024 -2.11,-1.532 -3.672,-1.532 -1.575,0 -2.805,0.508 -3.688,1.532 -0.887,1.019 -1.328,2.422 -1.328,4.203 0,1.801 0.441,3.207 1.328,4.219 0.883,1.019 2.113,1.531 3.688,1.531 z" /><path
         id="path4338"
         style="fill:#ffffff;fill-opacity:1;fill-rule:nonzero;stroke:none"
         d="m 126.73,38.833 c -0.968,0 -1.734,-0.375 -2.296,-1.125 -0.555,-0.75 -0.829,-1.782 -0.829,-3.094 0,-1.305 0.274,-2.336 0.829,-3.094 0.562,-0.75 1.328,-1.125 2.296,-1.125 0.958,0 1.711,0.375 2.266,1.125 0.563,0.758 0.844,1.789 0.844,3.094 0,1.301 -0.281,2.328 -0.844,3.078 -0.555,0.758 -1.308,1.141 -2.266,1.141 z m 0,1.531 c 1.563,0 2.786,-0.512 3.672,-1.531 0.895,-1.012 1.344,-2.418 1.344,-4.219 0,-1.781 -0.449,-3.184 -1.344,-4.203 -0.886,-1.024 -2.109,-1.532 -3.672,-1.532 -1.574,0 -2.804,0.508 -3.687,1.532 -0.887,1.019 -1.328,2.422 -1.328,4.203 0,1.801 0.441,3.207 1.328,4.219 0.883,1.019 2.113,1.531 3.687,1.531 z" /><path
         id="path4340"
         style="fill:#ffffff;fill-opacity:1;fill-rule:nonzero;stroke:none"
         d="m 136.457,30.801 0,-5.797 -1.812,0 0,15.094 1.812,0 0,-1.656 c 0.375,0.644 0.848,1.125 1.422,1.437 0.582,0.321 1.273,0.485 2.078,0.485 1.32,0 2.398,-0.531 3.234,-1.594 0.832,-1.055 1.25,-2.437 1.25,-4.156 0,-1.719 -0.418,-3.106 -1.25,-4.156 -0.836,-1.055 -1.914,-1.579 -3.234,-1.579 -0.805,0 -1.496,0.157 -2.078,0.469 -0.574,0.32 -1.047,0.805 -1.422,1.453 z m 6.109,3.813 c 0,1.32 -0.273,2.359 -0.812,3.109 -0.543,0.758 -1.289,1.141 -2.234,1.141 -0.961,0 -1.711,-0.383 -2.25,-1.141 -0.543,-0.75 -0.813,-1.789 -0.813,-3.109 0,-1.313 0.27,-2.352 0.813,-3.11 0.539,-0.75 1.289,-1.125 2.25,-1.125 0.945,0 1.691,0.375 2.234,1.125 0.539,0.758 0.812,1.797 0.812,3.11 z" /><path
         id="path4342"
         style="fill:#ffffff;fill-opacity:1;fill-rule:nonzero;stroke:none"
         d="m 156.762,35.083 0,-0.875 -8.25,0 c 0.07,-1.243 0.441,-2.188 1.109,-2.844 0.664,-0.649 1.598,-0.969 2.797,-0.969 0.687,0 1.352,0.082 2,0.25 0.644,0.176 1.289,0.43 1.937,0.766 l 0,-1.688 c -0.648,-0.281 -1.308,-0.492 -1.984,-0.625 -0.68,-0.144 -1.367,-0.219 -2.062,-0.219 -1.75,0 -3.137,0.504 -4.157,1.516 -1.011,1.02 -1.515,2.395 -1.515,4.125 0,1.789 0.476,3.211 1.437,4.266 0.969,1.05 2.274,1.578 3.922,1.578 1.469,0 2.629,-0.477 3.484,-1.422 0.852,-0.949 1.282,-2.234 1.282,-3.859 z m -1.797,0.531 c -0.012,0.976 -0.289,1.758 -0.828,2.344 -0.532,0.582 -1.242,0.875 -2.125,0.875 -1,0 -1.805,-0.282 -2.407,-0.844 -0.605,-0.563 -0.953,-1.36 -1.046,-2.391 l 6.406,0.016 z" /><path
         id="path4344"
         style="fill:#ffffff;fill-opacity:1;fill-rule:nonzero;stroke:none"
         d="m 168.816,35.77 0,-6.609 -1.796,0 0,6.547 c 0,1.031 -0.204,1.8 -0.61,2.312 -0.406,0.52 -1.012,0.781 -1.812,0.781 -0.981,0 -1.75,-0.312 -2.313,-0.937 -0.555,-0.617 -0.828,-1.453 -0.828,-2.516 l 0,-6.187 -1.812,0 0,10.937 1.812,0 0,-1.703 c 0.426,0.656 0.93,1.145 1.516,1.469 0.582,0.332 1.254,0.5 2.015,0.5 1.258,0 2.211,-0.391 2.86,-1.172 0.644,-0.774 0.968,-1.914 0.968,-3.422 z" /><path
         id="path4346"
         style="fill:#ffffff;fill-opacity:1;fill-rule:nonzero;stroke:none"
         d="m 183.754,34.661 c -1.461,0 -2.469,-0.168 -3.031,-0.5 -0.555,-0.336 -0.828,-0.903 -0.828,-1.703 0,-0.637 0.207,-1.141 0.625,-1.516 0.425,-0.375 1,-0.563 1.718,-0.563 1,0 1.797,0.352 2.391,1.063 0.601,0.707 0.906,1.644 0.906,2.812 l 0,0.407 -1.781,0 z m 3.578,0.734 0,-6.234 -1.797,0 0,1.656 c -0.406,-0.656 -0.918,-1.149 -1.531,-1.469 -0.617,-0.312 -1.367,-0.469 -2.25,-0.469 -1.117,0 -2.008,0.313 -2.672,0.938 -0.656,0.633 -0.984,1.476 -0.984,2.531 0,1.227 0.41,2.156 1.234,2.781 0.82,0.625 2.051,0.938 3.688,0.938 l 2.515,0 0,0.172 c 0,0.832 -0.273,1.472 -0.812,1.922 -0.543,0.445 -1.309,0.672 -2.297,0.672 -0.625,0 -1.235,-0.075 -1.828,-0.219 -0.586,-0.149 -1.153,-0.371 -1.703,-0.672 l 0,1.656 c 0.656,0.258 1.289,0.453 1.906,0.578 0.625,0.125 1.226,0.188 1.812,0.188 1.582,0 2.766,-0.414 3.547,-1.235 0.781,-0.824 1.172,-2.07 1.172,-3.734 z" /><path
         id="path4348"
         style="fill:#ffffff;fill-opacity:1;fill-rule:nonzero;stroke:none"
         d="m 206.246,40.098 0,-10.937 -1.797,0 0,9.547 -4.937,0 0,-9.547 -1.813,0 0,9.547 -1.719,0 0,1.39 1.719,0 0,0.766 c 0,1.187 0.281,2.066 0.844,2.64 0.57,0.571 1.437,0.86 2.594,0.86 l 1.812,0 0,-1.5 -1.719,0 c -0.648,0 -1.093,-0.133 -1.343,-0.391 -0.25,-0.262 -0.375,-0.73 -0.375,-1.406 l 0,-0.969 6.734,0 z m -1.797,4.235 1.797,0 0,-2.266 -1.797,0 0,2.266 z" /><path
         id="path4350"
         style="fill:#ffffff;fill-opacity:1;fill-rule:nonzero;stroke:none"
         d="m 210.035,44.364 1.797,0 0,-15.203 -1.797,0 0,15.203 z" /><path
         id="path4352"
         style="fill:#ffffff;fill-opacity:1;fill-rule:nonzero;stroke:none"
         d="m 224.926,35.083 0,-0.875 -8.25,0 c 0.07,-1.243 0.441,-2.188 1.109,-2.844 0.664,-0.649 1.598,-0.969 2.797,-0.969 0.688,0 1.352,0.082 2,0.25 0.645,0.176 1.289,0.43 1.938,0.766 l 0,-1.688 c -0.649,-0.281 -1.309,-0.492 -1.985,-0.625 -0.68,-0.144 -1.367,-0.219 -2.062,-0.219 -1.75,0 -3.137,0.504 -4.157,1.516 -1.011,1.02 -1.515,2.395 -1.515,4.125 0,1.789 0.476,3.211 1.437,4.266 0.969,1.05 2.274,1.578 3.922,1.578 1.469,0 2.629,-0.477 3.485,-1.422 0.851,-0.949 1.281,-2.234 1.281,-3.859 z m -1.797,0.531 c -0.012,0.976 -0.289,1.758 -0.828,2.344 -0.531,0.582 -1.242,0.875 -2.125,0.875 -1,0 -1.805,-0.282 -2.406,-0.844 -0.606,-0.563 -0.954,-1.36 -1.047,-2.391 l 6.406,0.016 z" /><path
         id="path4354"
         style="fill:#ffffff;fill-opacity:1;fill-rule:nonzero;stroke:none"
         d="m 241.223,39.77 0,-1.687 c -0.512,0.257 -1.043,0.453 -1.594,0.578 -0.543,0.132 -1.106,0.203 -1.688,0.203 -0.898,0 -1.57,-0.141 -2.015,-0.422 -0.438,-0.274 -0.656,-0.68 -0.656,-1.219 0,-0.418 0.156,-0.746 0.468,-0.984 0.321,-0.242 0.961,-0.469 1.922,-0.688 l 0.625,-0.125 c 1.27,-0.281 2.172,-0.672 2.703,-1.172 0.539,-0.492 0.813,-1.183 0.813,-2.078 0,-1.011 -0.403,-1.812 -1.203,-2.406 -0.805,-0.594 -1.907,-0.891 -3.313,-0.891 -0.586,0 -1.195,0.059 -1.828,0.172 -0.637,0.114 -1.309,0.285 -2.016,0.516 l 0,1.844 c 0.664,-0.344 1.321,-0.606 1.969,-0.782 0.645,-0.168 1.285,-0.25 1.922,-0.25 0.844,0 1.488,0.145 1.938,0.438 0.457,0.289 0.687,0.695 0.687,1.219 0,0.488 -0.168,0.863 -0.5,1.125 -0.324,0.257 -1.043,0.507 -2.156,0.75 l -0.625,0.156 c -1.117,0.226 -1.922,0.582 -2.422,1.062 -0.492,0.489 -0.734,1.161 -0.734,2.016 0,1.02 0.363,1.813 1.093,2.375 0.727,0.563 1.766,0.844 3.11,0.844 0.664,0 1.289,-0.055 1.875,-0.156 0.582,-0.094 1.125,-0.243 1.625,-0.438 z" /><path
         id="path4356"
         style="fill:#ffffff;fill-opacity:1;fill-rule:nonzero;stroke:none"
         d="m 254.027,35.083 0,-0.875 -8.25,0 c 0.071,-1.243 0.442,-2.188 1.11,-2.844 0.664,-0.649 1.597,-0.969 2.797,-0.969 0.687,0 1.351,0.082 2,0.25 0.644,0.176 1.289,0.43 1.937,0.766 l 0,-1.688 c -0.648,-0.281 -1.309,-0.492 -1.984,-0.625 -0.68,-0.144 -1.367,-0.219 -2.063,-0.219 -1.75,0 -3.136,0.504 -4.156,1.516 -1.012,1.02 -1.516,2.395 -1.516,4.125 0,1.789 0.477,3.211 1.438,4.266 0.969,1.05 2.273,1.578 3.922,1.578 1.468,0 2.629,-0.477 3.484,-1.422 0.852,-0.949 1.281,-2.234 1.281,-3.859 z m -1.797,0.531 c -0.011,0.976 -0.289,1.758 -0.828,2.344 -0.531,0.582 -1.242,0.875 -2.125,0.875 -1,0 -1.804,-0.282 -2.406,-0.844 -0.605,-0.563 -0.953,-1.36 -1.047,-2.391 l 6.406,0.016 z" /><path
         id="path4358"
         style="fill:#ffffff;fill-opacity:1;fill-rule:nonzero;stroke:none"
         d="m 256.988,44.364 1.797,0 0,-15.203 -1.797,0 0,15.203 z" /><path
         id="path4360"
         style="fill:#ffffff;fill-opacity:1;fill-rule:nonzero;stroke:none"
         d="m 271.879,35.083 0,-0.875 -8.25,0 c 0.07,-1.243 0.441,-2.188 1.109,-2.844 0.664,-0.649 1.598,-0.969 2.797,-0.969 0.688,0 1.352,0.082 2,0.25 0.645,0.176 1.289,0.43 1.938,0.766 l 0,-1.688 c -0.649,-0.281 -1.309,-0.492 -1.985,-0.625 -0.679,-0.144 -1.367,-0.219 -2.062,-0.219 -1.75,0 -3.137,0.504 -4.156,1.516 -1.012,1.02 -1.516,2.395 -1.516,4.125 0,1.789 0.476,3.211 1.437,4.266 0.969,1.05 2.274,1.578 3.922,1.578 1.469,0 2.629,-0.477 3.485,-1.422 0.851,-0.949 1.281,-2.234 1.281,-3.859 z m -1.797,0.531 c -0.012,0.976 -0.289,1.758 -0.828,2.344 -0.531,0.582 -1.242,0.875 -2.125,0.875 -1,0 -1.805,-0.282 -2.406,-0.844 -0.606,-0.563 -0.953,-1.36 -1.047,-2.391 l 6.406,0.016 z" /><path
         id="path4362"
         style="fill:#ffffff;fill-opacity:1;fill-rule:nonzero;stroke:none"
         d="m 282.699,39.676 0,-1.672 c -0.5,0.282 -1.008,0.489 -1.515,0.625 -0.512,0.133 -1.028,0.204 -1.547,0.204 -1.168,0 -2.075,-0.372 -2.719,-1.11 -0.648,-0.73 -0.969,-1.765 -0.969,-3.109 0,-1.336 0.321,-2.371 0.969,-3.11 0.644,-0.742 1.551,-1.109 2.719,-1.109 0.519,0 1.035,0.066 1.547,0.203 0.507,0.145 1.015,0.36 1.515,0.641 l 0,-1.656 c -0.5,-0.243 -1.023,-0.418 -1.562,-0.532 -0.532,-0.113 -1.102,-0.172 -1.703,-0.172 -1.649,0 -2.954,0.516 -3.922,1.547 -0.969,1.039 -1.453,2.438 -1.453,4.188 0,1.789 0.488,3.195 1.468,4.219 0.977,1.019 2.321,1.531 4.032,1.531 0.55,0 1.086,-0.059 1.609,-0.172 0.531,-0.117 1.039,-0.289 1.531,-0.516 z" /><path
         id="path4364"
         style="fill:#ffffff;fill-opacity:1;fill-rule:nonzero;stroke:none"
         d="m 287.621,43.208 0,-3.11 3.703,0 0,-1.39 -3.703,0 0,-5.938 c 0,-0.898 0.117,-1.477 0.359,-1.734 0.25,-0.25 0.75,-0.375 1.5,-0.375 l 1.844,0 0,-1.5 -1.844,0 c -1.386,0 -2.343,0.254 -2.875,0.765 -0.523,0.52 -0.781,1.469 -0.781,2.844 l 0,5.938 -1.328,0 0,1.39 1.328,0 0,3.11 1.797,0 z" /><path
         id="path4366"
         style="fill:#ffffff;fill-opacity:1;fill-rule:nonzero;stroke:none"
         d="m 297.941,38.833 c -0.968,0 -1.734,-0.375 -2.296,-1.125 -0.555,-0.75 -0.829,-1.782 -0.829,-3.094 0,-1.305 0.274,-2.336 0.829,-3.094 0.562,-0.75 1.328,-1.125 2.296,-1.125 0.957,0 1.711,0.375 2.266,1.125 0.563,0.758 0.844,1.789 0.844,3.094 0,1.301 -0.281,2.328 -0.844,3.078 -0.555,0.758 -1.309,1.141 -2.266,1.141 z m 0,1.531 c 1.563,0 2.786,-0.512 3.672,-1.531 0.895,-1.012 1.344,-2.418 1.344,-4.219 0,-1.781 -0.449,-3.184 -1.344,-4.203 -0.886,-1.024 -2.109,-1.532 -3.672,-1.532 -1.574,0 -2.804,0.508 -3.687,1.532 -0.887,1.019 -1.328,2.422 -1.328,4.203 0,1.801 0.441,3.207 1.328,4.219 0.883,1.019 2.113,1.531 3.687,1.531 z" /><path
         id="path4368"
         style="fill:#ffffff;fill-opacity:1;fill-rule:nonzero;stroke:none"
         d="m 312.262,38.426 c -0.2,0.114 -0.418,0.196 -0.657,0.25 -0.242,0.051 -0.5,0.078 -0.781,0.078 -1.023,0 -1.804,-0.328 -2.344,-0.984 -0.542,-0.656 -0.812,-1.605 -0.812,-2.844 l 0,-5.765 -1.813,0 0,10.937 1.813,0 0,-1.703 c 0.375,0.664 0.863,1.16 1.469,1.484 0.601,0.321 1.343,0.485 2.218,0.485 0.114,0 0.243,-0.012 0.391,-0.031 0.156,-0.012 0.328,-0.032 0.516,-0.063 l 0,-1.844 z" /><path
         id="path4370"
         style="fill:#ffffff;fill-opacity:1;fill-rule:nonzero;stroke:none"
         d="m 58.469,13.833 c -0.969,0 -1.735,-0.375 -2.297,-1.125 -0.555,-0.75 -0.828,-1.782 -0.828,-3.094 0,-1.305 0.273,-2.336 0.828,-3.094 0.562,-0.75 1.328,-1.125 2.297,-1.125 0.957,0 1.711,0.375 2.265,1.125 0.563,0.758 0.844,1.789 0.844,3.094 0,1.301 -0.281,2.328 -0.844,3.078 -0.554,0.758 -1.308,1.141 -2.265,1.141 z m 0,1.531 c 1.562,0 2.785,-0.512 3.672,-1.531 0.894,-1.012 1.343,-2.418 1.343,-4.219 0,-1.781 -0.449,-3.184 -1.343,-4.203 -0.887,-1.024 -2.11,-1.532 -3.672,-1.532 -1.574,0 -2.805,0.508 -3.688,1.532 -0.886,1.019 -1.328,2.422 -1.328,4.203 0,1.801 0.442,3.207 1.328,4.219 0.883,1.019 2.114,1.531 3.688,1.531 z" /><path
         id="path4372"
         style="fill:#ffffff;fill-opacity:1;fill-rule:nonzero;stroke:none"
         d="m 72.789,13.426 c -0.199,0.114 -0.418,0.196 -0.656,0.25 -0.242,0.051 -0.5,0.078 -0.781,0.078 -1.024,0 -1.805,-0.328 -2.344,-0.984 -0.543,-0.656 -0.813,-1.605 -0.813,-2.844 l 0,-5.765 -1.812,0 0,10.937 1.812,0 0,-1.703 c 0.375,0.664 0.864,1.16 1.469,1.484 0.602,0.321 1.344,0.485 2.219,0.485 0.113,0 0.242,-0.012 0.39,-0.031 0.157,-0.012 0.329,-0.032 0.516,-0.063 l 0,-1.844 z" /><path
         id="path4374"
         style="fill:#ffffff;fill-opacity:1;fill-rule:nonzero;stroke:none"
         d="m 82.805,5.801 0,-5.797 -1.813,0 0,15.094 1.813,0 0,-1.656 c 0.375,0.644 0.847,1.125 1.422,1.437 0.582,0.321 1.273,0.485 2.078,0.485 1.32,0 2.398,-0.531 3.234,-1.594 0.832,-1.055 1.25,-2.437 1.25,-4.156 0,-1.719 -0.418,-3.106 -1.25,-4.156 -0.836,-1.055 -1.914,-1.579 -3.234,-1.579 -0.805,0 -1.496,0.157 -2.078,0.469 -0.575,0.32 -1.047,0.805 -1.422,1.453 z m 6.109,3.813 c 0,1.32 -0.273,2.359 -0.812,3.109 -0.543,0.758 -1.29,1.141 -2.235,1.141 -0.961,0 -1.711,-0.383 -2.25,-1.141 -0.543,-0.75 -0.812,-1.789 -0.812,-3.109 0,-1.313 0.269,-2.352 0.812,-3.11 0.539,-0.75 1.289,-1.125 2.25,-1.125 0.945,0 1.692,0.375 2.235,1.125 0.539,0.758 0.812,1.797 0.812,3.11 z" /><path
         id="path4376"
         style="fill:#ffffff;fill-opacity:1;fill-rule:nonzero;stroke:none"
         d="m 100.094,13.426 c -0.199,0.114 -0.418,0.196 -0.656,0.25 -0.243,0.051 -0.5,0.078 -0.782,0.078 -1.023,0 -1.804,-0.328 -2.344,-0.984 C 95.77,12.114 95.5,11.165 95.5,9.926 l 0,-5.765 -1.812,0 0,10.937 1.812,0 0,-1.703 c 0.375,0.664 0.863,1.16 1.469,1.484 0.601,0.321 1.343,0.485 2.219,0.485 0.113,0 0.242,-0.012 0.39,-0.031 0.156,-0.012 0.328,-0.032 0.516,-0.063 l 0,-1.844 z" /><path
         id="path4378"
         style="fill:#ffffff;fill-opacity:1;fill-rule:nonzero;stroke:none"
         d="m 110.922,10.083 0,-0.875 -8.25,0 c 0.07,-1.243 0.441,-2.188 1.109,-2.844 0.664,-0.649 1.598,-0.969 2.797,-0.969 0.688,0 1.352,0.082 2,0.25 0.645,0.176 1.289,0.43 1.938,0.766 l 0,-1.688 c -0.649,-0.281 -1.309,-0.492 -1.985,-0.625 -0.679,-0.144 -1.367,-0.219 -2.062,-0.219 -1.75,0 -3.137,0.504 -4.157,1.516 -1.011,1.02 -1.515,2.395 -1.515,4.125 0,1.789 0.476,3.211 1.437,4.266 0.969,1.05 2.274,1.578 3.922,1.578 1.469,0 2.629,-0.477 3.485,-1.422 0.851,-0.949 1.281,-2.234 1.281,-3.859 z m -1.797,0.531 c -0.012,0.976 -0.289,1.758 -0.828,2.344 -0.531,0.582 -1.242,0.875 -2.125,0.875 -1,0 -1.805,-0.282 -2.406,-0.844 -0.606,-0.563 -0.954,-1.36 -1.047,-2.391 l 6.406,0.016 z" /><path
         id="path4380"
         style="fill:#ffffff;fill-opacity:1;fill-rule:nonzero;stroke:none"
         d="m 120.852,14.77 0,-1.687 c -0.512,0.257 -1.043,0.453 -1.594,0.578 -0.543,0.132 -1.106,0.203 -1.688,0.203 -0.898,0 -1.57,-0.141 -2.015,-0.422 -0.438,-0.274 -0.657,-0.68 -0.657,-1.219 0,-0.418 0.157,-0.746 0.469,-0.984 0.321,-0.242 0.961,-0.469 1.922,-0.688 l 0.625,-0.125 c 1.27,-0.281 2.172,-0.672 2.703,-1.172 0.539,-0.492 0.813,-1.183 0.813,-2.078 0,-1.011 -0.403,-1.812 -1.203,-2.406 -0.805,-0.594 -1.907,-0.891 -3.313,-0.891 -0.586,0 -1.195,0.059 -1.828,0.172 -0.637,0.114 -1.309,0.285 -2.016,0.516 l 0,1.844 c 0.664,-0.344 1.321,-0.606 1.969,-0.782 0.645,-0.168 1.285,-0.25 1.922,-0.25 0.844,0 1.488,0.145 1.937,0.438 0.457,0.289 0.688,0.695 0.688,1.219 0,0.488 -0.168,0.863 -0.5,1.125 -0.324,0.257 -1.043,0.507 -2.156,0.75 l -0.625,0.156 c -1.117,0.226 -1.922,0.582 -2.422,1.062 -0.492,0.489 -0.735,1.161 -0.735,2.016 0,1.02 0.364,1.813 1.094,2.375 0.727,0.563 1.766,0.844 3.11,0.844 0.664,0 1.289,-0.055 1.875,-0.156 0.582,-0.094 1.125,-0.243 1.625,-0.438 z" /><path
         id="path4382"
         style="fill:#ffffff;fill-opacity:1;fill-rule:nonzero;stroke:none"
         d="m 131.281,14.77 0,-1.687 c -0.511,0.257 -1.043,0.453 -1.593,0.578 -0.543,0.132 -1.106,0.203 -1.688,0.203 -0.898,0 -1.57,-0.141 -2.016,-0.422 -0.437,-0.274 -0.656,-0.68 -0.656,-1.219 0,-0.418 0.156,-0.746 0.469,-0.984 0.32,-0.242 0.961,-0.469 1.922,-0.688 l 0.625,-0.125 c 1.269,-0.281 2.172,-0.672 2.703,-1.172 0.539,-0.492 0.812,-1.183 0.812,-2.078 0,-1.011 -0.402,-1.812 -1.203,-2.406 -0.804,-0.594 -1.906,-0.891 -3.312,-0.891 -0.586,0 -1.196,0.059 -1.828,0.172 -0.637,0.114 -1.309,0.285 -2.016,0.516 l 0,1.844 c 0.664,-0.344 1.32,-0.606 1.969,-0.782 0.644,-0.168 1.285,-0.25 1.922,-0.25 0.843,0 1.488,0.145 1.937,0.438 0.457,0.289 0.688,0.695 0.688,1.219 0,0.488 -0.168,0.863 -0.5,1.125 -0.325,0.257 -1.043,0.507 -2.157,0.75 l -0.625,0.156 c -1.117,0.226 -1.922,0.582 -2.422,1.062 -0.492,0.489 -0.734,1.161 -0.734,2.016 0,1.02 0.363,1.813 1.094,2.375 0.726,0.563 1.766,0.844 3.109,0.844 0.664,0 1.289,-0.055 1.875,-0.156 0.582,-0.094 1.125,-0.243 1.625,-0.438 z" /><path
         id="path4384"
         style="fill:#ffffff;fill-opacity:1;fill-rule:nonzero;stroke:none"
         d="m 142.797,18.739 0,-5.422 -1.656,0 0,5.422 1.656,0 z m 3.703,0 0,-5.422 -1.672,0 0,5.422 1.672,0 z" /><path
         id="path4386"
         style="fill:#00ffff;fill-opacity:1;fill-rule:nonzero;stroke:none"
         d="m 152.25,6.645 1.984,0 0,-2.484 -1.984,0 0,2.484 z m 1.938,1.438 -1.876,0 0,1.5 c 0,0.656 0.086,1.191 0.266,1.609 0.188,0.426 0.57,0.922 1.156,1.484 l 0.891,0.875 c 0.363,0.344 0.629,0.664 0.797,0.969 0.164,0.313 0.25,0.625 0.25,0.938 0,0.582 -0.215,1.05 -0.641,1.406 -0.429,0.363 -0.992,0.547 -1.687,0.547 -0.524,0 -1.074,-0.118 -1.656,-0.344 -0.575,-0.231 -1.18,-0.563 -1.813,-1 l 0,1.828 c 0.613,0.375 1.234,0.648 1.859,0.828 0.625,0.188 1.274,0.281 1.954,0.281 1.195,0 2.156,-0.32 2.874,-0.953 0.727,-0.625 1.094,-1.461 1.094,-2.5 0,-0.492 -0.121,-0.961 -0.359,-1.406 -0.231,-0.449 -0.637,-0.949 -1.219,-1.5 l -0.859,-0.844 c -0.313,-0.312 -0.531,-0.558 -0.657,-0.734 -0.124,-0.168 -0.214,-0.328 -0.265,-0.484 -0.043,-0.137 -0.074,-0.305 -0.094,-0.5 -0.012,-0.2 -0.015,-0.465 -0.015,-0.797 l 0,-1.203 z" /><path
         id="path4388"
         style="fill:#ffffff;fill-opacity:1;fill-rule:nonzero;stroke:none"
         d="m 162.641,18.739 0,-5.422 -1.657,0 0,5.422 1.657,0 z m 3.703,0 0,-5.422 -1.672,0 0,5.422 1.672,0 z" /><path
         id="path4390"
         style="fill:#ffffff;fill-opacity:1;fill-rule:nonzero;stroke:none"
         d="m 182.07,19.364 0,-1.5 -1.718,0 c -0.649,0 -1.094,-0.133 -1.344,-0.391 -0.25,-0.262 -0.375,-0.73 -0.375,-1.406 l 0,-0.969 2.953,0 0,-1.39 -2.953,0 0,-9.547 -1.813,0 0,9.547 -1.718,0 0,1.39 1.718,0 0,0.766 c 0,1.219 0.282,2.101 0.844,2.656 0.57,0.563 1.473,0.844 2.703,0.844 l 1.703,0 z" /><path
         id="path4392"
         style="fill:#ffffff;fill-opacity:1;fill-rule:nonzero;stroke:none"
         d="m 187.805,13.833 c -0.969,0 -1.735,-0.375 -2.297,-1.125 -0.555,-0.75 -0.828,-1.782 -0.828,-3.094 0,-1.305 0.273,-2.336 0.828,-3.094 0.562,-0.75 1.328,-1.125 2.297,-1.125 0.957,0 1.711,0.375 2.265,1.125 0.563,0.758 0.844,1.789 0.844,3.094 0,1.301 -0.281,2.328 -0.844,3.078 -0.554,0.758 -1.308,1.141 -2.265,1.141 z m 0,1.531 c 1.562,0 2.785,-0.512 3.672,-1.531 0.894,-1.012 1.343,-2.418 1.343,-4.219 0,-1.781 -0.449,-3.184 -1.343,-4.203 -0.887,-1.024 -2.11,-1.532 -3.672,-1.532 -1.575,0 -2.805,0.508 -3.688,1.532 -0.887,1.019 -1.328,2.422 -1.328,4.203 0,1.801 0.441,3.207 1.328,4.219 0.883,1.019 2.113,1.531 3.688,1.531 z" /><path
         id="path4394"
         style="fill:#ffffff;fill-opacity:1;fill-rule:nonzero;stroke:none"
         d="m 202.125,13.426 c -0.199,0.114 -0.418,0.196 -0.656,0.25 -0.242,0.051 -0.5,0.078 -0.781,0.078 -1.024,0 -1.805,-0.328 -2.344,-0.984 -0.543,-0.656 -0.813,-1.605 -0.813,-2.844 l 0,-5.765 -1.812,0 0,10.937 1.812,0 0,-1.703 c 0.375,0.664 0.864,1.16 1.469,1.484 0.602,0.321 1.344,0.485 2.219,0.485 0.113,0 0.242,-0.012 0.39,-0.031 0.157,-0.012 0.329,-0.032 0.516,-0.063 l 0,-1.844 z" /><path
         id="path4396"
         style="fill:#ffffff;fill-opacity:1;fill-rule:nonzero;stroke:none"
         d="m 219.5,10.77 0,-6.609 -1.797,0 0,6.547 c 0,1.031 -0.203,1.8 -0.609,2.312 -0.406,0.52 -1.012,0.781 -1.813,0.781 -0.98,0 -1.75,-0.312 -2.312,-0.937 -0.555,-0.617 -0.828,-1.453 -0.828,-2.516 l 0,-6.187 -1.813,0 0,15.203 1.813,0 0,-5.969 c 0.425,0.656 0.929,1.145 1.515,1.469 0.582,0.332 1.254,0.5 2.016,0.5 1.258,0 2.211,-0.391 2.859,-1.172 0.645,-0.774 0.969,-1.914 0.969,-3.422 z" /><path
         id="path4398"
         style="fill:#ffffff;fill-opacity:1;fill-rule:nonzero;stroke:none"
         d="m 232.445,10.083 0,-0.875 -8.25,0 c 0.071,-1.243 0.442,-2.188 1.11,-2.844 0.664,-0.649 1.597,-0.969 2.797,-0.969 0.687,0 1.351,0.082 2,0.25 0.644,0.176 1.289,0.43 1.937,0.766 l 0,-1.688 c -0.648,-0.281 -1.309,-0.492 -1.984,-0.625 -0.68,-0.144 -1.367,-0.219 -2.063,-0.219 -1.75,0 -3.137,0.504 -4.156,1.516 -1.012,1.02 -1.516,2.395 -1.516,4.125 0,1.789 0.477,3.211 1.438,4.266 0.969,1.05 2.273,1.578 3.922,1.578 1.468,0 2.629,-0.477 3.484,-1.422 0.852,-0.949 1.281,-2.234 1.281,-3.859 z m -1.797,0.531 c -0.011,0.976 -0.289,1.758 -0.828,2.344 -0.531,0.582 -1.242,0.875 -2.125,0.875 -1,0 -1.804,-0.282 -2.406,-0.844 -0.605,-0.563 -0.953,-1.36 -1.047,-2.391 l 6.406,0.016 z" /><path
         id="path4400"
         style="fill:#ffffff;fill-opacity:1;fill-rule:nonzero;stroke:none"
         d="m 235.406,19.364 1.797,0 0,-15.203 -1.797,0 0,15.203 z" /><path
         id="path4402"
         style="fill:#ffffff;fill-opacity:1;fill-rule:nonzero;stroke:none"
         d="m 242.688,5.801 0,-5.797 -1.813,0 0,15.094 1.813,0 0,-1.656 c 0.374,0.644 0.847,1.125 1.421,1.437 0.582,0.321 1.274,0.485 2.079,0.485 1.32,0 2.398,-0.531 3.234,-1.594 0.832,-1.055 1.25,-2.437 1.25,-4.156 0,-1.719 -0.418,-3.106 -1.25,-4.156 -0.836,-1.055 -1.914,-1.579 -3.234,-1.579 -0.805,0 -1.497,0.157 -2.079,0.469 -0.574,0.32 -1.047,0.805 -1.421,1.453 z m 6.109,3.813 c 0,1.32 -0.274,2.359 -0.813,3.109 -0.543,0.758 -1.289,1.141 -2.234,1.141 -0.961,0 -1.711,-0.383 -2.25,-1.141 -0.543,-0.75 -0.812,-1.789 -0.812,-3.109 0,-1.313 0.269,-2.352 0.812,-3.11 0.539,-0.75 1.289,-1.125 2.25,-1.125 0.945,0 1.691,0.375 2.234,1.125 0.539,0.758 0.813,1.797 0.813,3.11 z" /><path
         id="path4404"
         style="fill:#ffffff;fill-opacity:1;fill-rule:nonzero;stroke:none"
         d="m 253.898,6.645 2.062,0 0,-2.484 -2.062,0 0,2.484 z" /></g></g></svg>